<?xml version="1.0" encoding="UTF-8"?>
<!DOCTYPE svg PUBLIC "-//W3C//DTD SVG 1.1//EN" "http://www.w3.org/Graphics/SVG/1.1/DTD/svg11.dtd">
<svg xmlns="http://www.w3.org/2000/svg" version="1.1" width="225px" height="225px" style="shape-rendering:geometricPrecision; text-rendering:geometricPrecision; image-rendering:optimizeQuality; fill-rule:evenodd; clip-rule:evenodd" xmlns:xlink="http://www.w3.org/1999/xlink">
<g><path style="opacity:1" fill="#0d1115" d="M 2.5,-0.5 C 8.83333,-0.5 15.1667,-0.5 21.5,-0.5C 21.5,2.16667 21.5,4.83333 21.5,7.5C 18.8333,7.5 16.1667,7.5 13.5,7.5C 13.2842,18.2398 13.9509,28.9065 15.5,39.5C 17.5,39.5 19.5,39.5 21.5,39.5C 21.7771,42.4475 21.4438,45.2809 20.5,48C 22.9529,49.8479 23.9529,52.3479 23.5,55.5C 29.1106,55.149 32.1106,57.8156 32.5,63.5C 37.1667,67.8333 41.8333,72.1667 46.5,76.5C 47.3857,77.325 47.719,78.325 47.5,79.5C 53.3084,79.0649 55.9751,81.7316 55.5,87.5C 61.3084,87.0649 63.9751,89.7316 63.5,95.5C 66.8499,95.335 70.1832,95.5017 73.5,96C 71.709,98.1062 71.0423,100.606 71.5,103.5C 68.5285,103.435 65.8618,104.269 63.5,106C 66.275,106.778 68.775,106.278 71,104.5C 72.0299,104.836 72.5299,105.503 72.5,106.5C 65.0114,109.741 58.0114,113.741 51.5,118.5C 51.67,117.178 51.3366,116.011 50.5,115C 55.0587,114.689 55.392,113.855 51.5,112.5C 50.4461,112.68 49.4461,113.013 48.5,113.5C 47.513,110.232 47.1796,106.898 47.5,103.5C 48.8333,103.5 50.1667,103.5 51.5,103.5C 51.5,100.833 51.5,98.1667 51.5,95.5C 50.1667,95.5 48.8333,95.5 47.5,95.5C 47.2229,92.5525 47.5562,89.7191 48.5,87C 41.6891,87.9535 36.1891,85.7869 32,80.5C 31.5034,82.8098 31.3367,85.1432 31.5,87.5C 28.8333,87.5 26.1667,87.5 23.5,87.5C 23.5,84.8333 23.5,82.1667 23.5,79.5C 20.8333,79.5 18.1667,79.5 15.5,79.5C 15.5,76.8333 15.5,74.1667 15.5,71.5C 16.8333,71.5 18.1667,71.5 19.5,71.5C 19.5,68.8333 19.5,66.1667 19.5,63.5C 18.1667,63.5 16.8333,63.5 15.5,63.5C 15.5,60.8333 15.5,58.1667 15.5,55.5C 12.8333,55.5 10.1667,55.5 7.5,55.5C 7.5,58.1667 7.5,60.8333 7.5,63.5C 6.5,63.5 5.5,63.5 4.5,63.5C 4.48185,56.6886 3.48185,50.0219 1.5,43.5C 2.16667,38.1667 2.83333,32.8333 3.5,27.5C 2.50707,23.5577 1.84041,19.5577 1.5,15.5C 1.83429,10.1616 2.16763,4.82822 2.5,-0.5 Z"/></g>
<g><path style="opacity:1" fill="#0e1619" d="M 21.5,-0.5 C 27.5,-0.5 33.5,-0.5 39.5,-0.5C 37.2827,2.22432 34.7827,4.89099 32,7.5C 31.5026,10.146 31.3359,12.8127 31.5,15.5C 30.5,15.5 29.5,15.5 28.5,15.5C 28.5,20.8333 28.5,26.1667 28.5,31.5C 29.5,31.5 30.5,31.5 31.5,31.5C 31.1866,28.7531 31.52,26.0865 32.5,23.5C 33.4948,28.7921 33.8282,34.1254 33.5,39.5C 34.5,39.5 35.5,39.5 36.5,39.5C 36.5,42.1667 36.5,44.8333 36.5,47.5C 38.1667,47.5 39.8333,47.5 41.5,47.5C 41.5,50.1667 41.5,52.8333 41.5,55.5C 43.8568,55.3367 46.1902,55.5034 48.5,56C 56.0411,63.7086 63.7077,71.2086 71.5,78.5C 74.4465,79.3214 77.4465,79.8214 80.5,80C 79.5574,82.8003 79.7241,85.6337 81,88.5C 82.5986,92.4322 85.0986,95.4322 88.5,97.5C 83.4585,101.021 78.1251,104.021 72.5,106.5C 72.5299,105.503 72.0299,104.836 71,104.5C 68.775,106.278 66.275,106.778 63.5,106C 65.8618,104.269 68.5285,103.435 71.5,103.5C 71.0423,100.606 71.709,98.1062 73.5,96C 70.1832,95.5017 66.8499,95.335 63.5,95.5C 63.9751,89.7316 61.3084,87.0649 55.5,87.5C 55.9751,81.7316 53.3084,79.0649 47.5,79.5C 47.719,78.325 47.3857,77.325 46.5,76.5C 41.8333,72.1667 37.1667,67.8333 32.5,63.5C 32.1106,57.8156 29.1106,55.149 23.5,55.5C 23.9529,52.3479 22.9529,49.8479 20.5,48C 21.4438,45.2809 21.7771,42.4475 21.5,39.5C 19.5,39.5 17.5,39.5 15.5,39.5C 13.9509,28.9065 13.2842,18.2398 13.5,7.5C 16.1667,7.5 18.8333,7.5 21.5,7.5C 21.5,4.83333 21.5,2.16667 21.5,-0.5 Z"/></g>
<g><path style="opacity:1" fill="#121b1f" d="M 39.5,-0.5 C 52.8333,-0.5 66.1667,-0.5 79.5,-0.5C 79.5,2.16667 79.5,4.83333 79.5,7.5C 81.5,7.5 83.5,7.5 85.5,7.5C 85.9997,15.4948 86.4997,23.4948 87,31.5C 87.4974,28.854 87.6641,26.1873 87.5,23.5C 89.5,23.5 91.5,23.5 93.5,23.5C 95.0992,35.094 95.7659,46.7607 95.5,58.5C 91.7566,58.4592 91.5899,59.1259 95,60.5C 96.6354,59.1514 98.1354,59.3181 99.5,61C 98.244,61.4169 97.5774,62.2502 97.5,63.5C 91.8549,61.0121 86.1882,58.5121 80.5,56C 78.5594,55.2571 76.7261,55.4238 75,56.5C 74.7257,59.6487 75.3923,62.6487 77,65.5C 81.2982,72.5972 85.4648,79.7638 89.5,87C 90.8333,87.6667 92.1667,87.6667 93.5,87C 99.8773,82.8112 106.544,79.1446 113.5,76C 114.406,74.3005 114.739,72.4672 114.5,70.5C 108.875,68.684 103.541,66.3507 98.5,63.5C 102.573,62.413 104.239,59.7464 103.5,55.5C 108.833,55.5 114.167,55.5 119.5,55.5C 119.813,58.2469 119.48,60.9135 118.5,63.5C 116.075,64.3076 113.742,65.3076 111.5,66.5C 114.065,68.4361 116.732,70.2694 119.5,72C 118.62,73.3561 118.286,74.8561 118.5,76.5C 121.397,76.8747 124.063,76.3747 126.5,75C 125.328,74.5814 124.328,73.9147 123.5,73C 125.955,72.2938 127.622,73.1271 128.5,75.5C 115.482,83.1321 102.149,90.4655 88.5,97.5C 85.0986,95.4322 82.5986,92.4322 81,88.5C 79.7241,85.6337 79.5574,82.8003 80.5,80C 77.4465,79.8214 74.4465,79.3214 71.5,78.5C 63.7077,71.2086 56.0411,63.7086 48.5,56C 46.1902,55.5034 43.8568,55.3367 41.5,55.5C 41.5,52.8333 41.5,50.1667 41.5,47.5C 39.8333,47.5 38.1667,47.5 36.5,47.5C 36.5,44.8333 36.5,42.1667 36.5,39.5C 35.5,39.5 34.5,39.5 33.5,39.5C 33.8282,34.1254 33.4948,28.7921 32.5,23.5C 31.52,26.0865 31.1866,28.7531 31.5,31.5C 30.5,31.5 29.5,31.5 28.5,31.5C 28.5,26.1667 28.5,20.8333 28.5,15.5C 29.5,15.5 30.5,15.5 31.5,15.5C 31.3359,12.8127 31.5026,10.146 32,7.5C 34.7827,4.89099 37.2827,2.22432 39.5,-0.5 Z"/></g>
<g><path style="opacity:1" fill="#10151b" d="M 79.5,-0.5 C 87.5,-0.5 95.5,-0.5 103.5,-0.5C 104.167,4.83333 104.833,10.1667 105.5,15.5C 106.5,15.5 107.5,15.5 108.5,15.5C 108.5,18.1667 108.5,20.8333 108.5,23.5C 109.5,23.5 110.5,23.5 111.5,23.5C 112.167,28.8333 112.833,34.1667 113.5,39.5C 116.247,39.1866 118.914,39.52 121.5,40.5C 122.579,42.543 124.246,43.8763 126.5,44.5C 127.386,45.325 127.719,46.325 127.5,47.5C 146.152,46.501 164.819,45.8343 183.5,45.5C 183.5,44.5 183.5,43.5 183.5,42.5C 188.833,42.5 194.167,42.5 199.5,42.5C 199.5,41.5 199.5,40.5 199.5,39.5C 202.167,39.5 204.833,39.5 207.5,39.5C 207.5,36.8333 207.5,34.1667 207.5,31.5C 213.463,32.0454 219.13,31.3787 224.5,29.5C 224.5,46.1667 224.5,62.8333 224.5,79.5C 221.5,79.5 218.5,79.5 215.5,79.5C 215.5,82.1667 215.5,84.8333 215.5,87.5C 214.5,87.5 213.5,87.5 212.5,87.5C 212.5,92.8333 212.5,98.1667 212.5,103.5C 209.833,103.5 207.167,103.5 204.5,103.5C 204.5,106.167 204.5,108.833 204.5,111.5C 202.833,111.5 201.167,111.5 199.5,111.5C 199.738,114.408 198.738,116.742 196.5,118.5C 194.955,119.452 193.288,119.785 191.5,119.5C 191.5,123.167 191.5,126.833 191.5,130.5C 188.833,130.5 186.167,130.5 183.5,130.5C 183.5,132.167 183.5,133.833 183.5,135.5C 180.289,135.012 177.456,135.679 175,137.5C 174.275,135.842 173.108,135.342 171.5,136C 171.833,136.333 172.167,136.667 172.5,137C 171.619,137.708 170.953,138.542 170.5,139.5C 167.992,135.818 165.992,131.818 164.5,127.5C 164.859,125.515 165.692,124.849 167,125.5C 167.483,124.552 167.649,123.552 167.5,122.5C 163.867,122.557 163.7,121.557 167,119.5C 167.497,116.854 167.664,114.187 167.5,111.5C 170.167,111.5 172.833,111.5 175.5,111.5C 175.5,108.833 175.5,106.167 175.5,103.5C 179.5,103.5 183.5,103.5 187.5,103.5C 187.5,98.1667 187.5,92.8333 187.5,87.5C 186.167,87.5 184.833,87.5 183.5,87.5C 183.5,80.8333 183.5,74.1667 183.5,67.5C 175.061,68.116 166.894,67.4494 159,65.5C 158.241,67.0629 157.074,68.0629 155.5,68.5C 152.36,66.8102 149.026,66.3102 145.5,67C 139.94,70.1259 134.273,72.9592 128.5,75.5C 127.622,73.1271 125.955,72.2938 123.5,73C 124.328,73.9147 125.328,74.5814 126.5,75C 124.063,76.3747 121.397,76.8747 118.5,76.5C 118.286,74.8561 118.62,73.3561 119.5,72C 116.732,70.2694 114.065,68.4361 111.5,66.5C 113.742,65.3076 116.075,64.3076 118.5,63.5C 119.48,60.9135 119.813,58.2469 119.5,55.5C 114.167,55.5 108.833,55.5 103.5,55.5C 104.239,59.7464 102.573,62.413 98.5,63.5C 98.1667,63.5 97.8333,63.5 97.5,63.5C 97.5774,62.2502 98.244,61.4169 99.5,61C 98.1354,59.3181 96.6354,59.1514 95,60.5C 91.5899,59.1259 91.7566,58.4592 95.5,58.5C 95.7659,46.7607 95.0992,35.094 93.5,23.5C 91.5,23.5 89.5,23.5 87.5,23.5C 87.6641,26.1873 87.4974,28.854 87,31.5C 86.4997,23.4948 85.9997,15.4948 85.5,7.5C 83.5,7.5 81.5,7.5 79.5,7.5C 79.5,4.83333 79.5,2.16667 79.5,-0.5 Z"/></g>
<g><path style="opacity:1" fill="#0d1116" d="M 103.5,-0.5 C 107.5,-0.5 111.5,-0.5 115.5,-0.5C 115.5,2.16667 115.5,4.83333 115.5,7.5C 116.833,7.5 118.167,7.5 119.5,7.5C 119.5,10.1667 119.5,12.8333 119.5,15.5C 120.833,15.5 122.167,15.5 123.5,15.5C 123.5,18.1667 123.5,20.8333 123.5,23.5C 127.5,23.5 131.5,23.5 135.5,23.5C 135.5,25.8333 135.5,28.1667 135.5,30.5C 146.148,31.277 156.815,31.6103 167.5,31.5C 167.5,32.8333 167.5,34.1667 167.5,35.5C 170.167,35.5 172.833,35.5 175.5,35.5C 175.5,34.1667 175.5,32.8333 175.5,31.5C 178.167,31.5 180.833,31.5 183.5,31.5C 183.5,26.1667 183.5,20.8333 183.5,15.5C 186.167,15.5 188.833,15.5 191.5,15.5C 191.5,18.1667 191.5,20.8333 191.5,23.5C 194.167,23.5 196.833,23.5 199.5,23.5C 199.5,20.8333 199.5,18.1667 199.5,15.5C 204.833,15.5 210.167,15.5 215.5,15.5C 215.5,12.8333 215.5,10.1667 215.5,7.5C 218.167,7.5 220.833,7.5 223.5,7.5C 223.232,5.90097 223.566,4.56764 224.5,3.5C 224.5,12.1667 224.5,20.8333 224.5,29.5C 219.13,31.3787 213.463,32.0454 207.5,31.5C 207.5,34.1667 207.5,36.8333 207.5,39.5C 204.833,39.5 202.167,39.5 199.5,39.5C 199.5,40.5 199.5,41.5 199.5,42.5C 194.167,42.5 188.833,42.5 183.5,42.5C 183.5,43.5 183.5,44.5 183.5,45.5C 164.819,45.8343 146.152,46.501 127.5,47.5C 127.719,46.325 127.386,45.325 126.5,44.5C 124.246,43.8763 122.579,42.543 121.5,40.5C 118.914,39.52 116.247,39.1866 113.5,39.5C 112.833,34.1667 112.167,28.8333 111.5,23.5C 110.5,23.5 109.5,23.5 108.5,23.5C 108.5,20.8333 108.5,18.1667 108.5,15.5C 107.5,15.5 106.5,15.5 105.5,15.5C 104.833,10.1667 104.167,4.83333 103.5,-0.5 Z"/></g>
<g><path style="opacity:1" fill="#0b0c12" d="M 115.5,-0.5 C 151.833,-0.5 188.167,-0.5 224.5,-0.5C 224.5,0.833333 224.5,2.16667 224.5,3.5C 223.566,4.56764 223.232,5.90097 223.5,7.5C 220.833,7.5 218.167,7.5 215.5,7.5C 215.5,10.1667 215.5,12.8333 215.5,15.5C 210.167,15.5 204.833,15.5 199.5,15.5C 199.5,18.1667 199.5,20.8333 199.5,23.5C 196.833,23.5 194.167,23.5 191.5,23.5C 191.5,20.8333 191.5,18.1667 191.5,15.5C 188.833,15.5 186.167,15.5 183.5,15.5C 183.5,20.8333 183.5,26.1667 183.5,31.5C 180.833,31.5 178.167,31.5 175.5,31.5C 175.5,32.8333 175.5,34.1667 175.5,35.5C 172.833,35.5 170.167,35.5 167.5,35.5C 167.5,34.1667 167.5,32.8333 167.5,31.5C 156.815,31.6103 146.148,31.277 135.5,30.5C 135.5,28.1667 135.5,25.8333 135.5,23.5C 131.5,23.5 127.5,23.5 123.5,23.5C 123.5,20.8333 123.5,18.1667 123.5,15.5C 122.167,15.5 120.833,15.5 119.5,15.5C 119.5,12.8333 119.5,10.1667 119.5,7.5C 118.167,7.5 116.833,7.5 115.5,7.5C 115.5,4.83333 115.5,2.16667 115.5,-0.5 Z"/></g>
<g><path style="opacity:1" fill="#8ef5e0" d="M 97.5,63.5 C 97.8333,63.5 98.1667,63.5 98.5,63.5C 103.541,66.3507 108.875,68.684 114.5,70.5C 114.739,72.4672 114.406,74.3005 113.5,76C 106.544,79.1446 99.8773,82.8112 93.5,87C 92.1667,87.6667 90.8333,87.6667 89.5,87C 85.4648,79.7638 81.2982,72.5972 77,65.5C 75.3923,62.6487 74.7257,59.6487 75,56.5C 76.7261,55.4238 78.5594,55.2571 80.5,56C 86.1882,58.5121 91.8549,61.0121 97.5,63.5 Z"/></g>
<g><path style="opacity:1" fill="#04e1b1" d="M 155.5,68.5 C 156.569,71.408 156.736,74.408 156,77.5C 146.648,95.5392 137.814,113.873 129.5,132.5C 122.921,145.325 116.588,158.325 110.5,171.5C 109.23,172.288 108.23,173.288 107.5,174.5C 104.455,174.658 101.621,173.991 99,172.5C 95.8573,161.238 92.024,150.238 87.5,139.5C 82.1507,137.822 76.8174,136.155 71.5,134.5C 66.4995,132.057 61.1662,130.39 55.5,129.5C 53.2475,129.084 51.7475,127.751 51,125.5C 50.2042,122.961 50.3709,120.628 51.5,118.5C 58.0114,113.741 65.0114,109.741 72.5,106.5C 78.1251,104.021 83.4585,101.021 88.5,97.5C 102.149,90.4655 115.482,83.1321 128.5,75.5C 134.273,72.9592 139.94,70.1259 145.5,67C 149.026,66.3102 152.36,66.8102 155.5,68.5 Z"/></g>
<g><path style="opacity:1" fill="#121b20" d="M 164.5,127.5 C 161.093,121.688 157.926,115.688 155,109.5C 152.861,108.231 150.695,108.231 148.5,109.5C 144.297,117.561 140.963,125.894 138.5,134.5C 135.783,135.129 134.45,133.796 134.5,130.5C 136.359,130.539 137.692,129.706 138.5,128C 137.175,128.148 136.008,127.982 135,127.5C 133.621,129.715 131.787,131.381 129.5,132.5C 137.814,113.873 146.648,95.5392 156,77.5C 156.736,74.408 156.569,71.408 155.5,68.5C 157.074,68.0629 158.241,67.0629 159,65.5C 166.894,67.4494 175.061,68.116 183.5,67.5C 183.5,74.1667 183.5,80.8333 183.5,87.5C 184.833,87.5 186.167,87.5 187.5,87.5C 187.5,92.8333 187.5,98.1667 187.5,103.5C 183.5,103.5 179.5,103.5 175.5,103.5C 175.5,106.167 175.5,108.833 175.5,111.5C 172.833,111.5 170.167,111.5 167.5,111.5C 167.664,114.187 167.497,116.854 167,119.5C 163.7,121.557 163.867,122.557 167.5,122.5C 167.649,123.552 167.483,124.552 167,125.5C 165.692,124.849 164.859,125.515 164.5,127.5 Z"/></g>
<g><path style="opacity:1" fill="#090a0f" d="M -0.5,-0.5 C 0.5,-0.5 1.5,-0.5 2.5,-0.5C 2.16763,4.82822 1.83429,10.1616 1.5,15.5C 1.84041,19.5577 2.50707,23.5577 3.5,27.5C 2.83333,32.8333 2.16667,38.1667 1.5,43.5C 3.48185,50.0219 4.48185,56.6886 4.5,63.5C 5.5,63.5 6.5,63.5 7.5,63.5C 7.5,60.8333 7.5,58.1667 7.5,55.5C 10.1667,55.5 12.8333,55.5 15.5,55.5C 15.5,58.1667 15.5,60.8333 15.5,63.5C 16.8333,63.5 18.1667,63.5 19.5,63.5C 19.5,66.1667 19.5,68.8333 19.5,71.5C 18.1667,71.5 16.8333,71.5 15.5,71.5C 15.5,74.1667 15.5,76.8333 15.5,79.5C 18.1667,79.5 20.8333,79.5 23.5,79.5C 23.5,82.1667 23.5,84.8333 23.5,87.5C 26.1667,87.5 28.8333,87.5 31.5,87.5C 31.3367,85.1432 31.5034,82.8098 32,80.5C 36.1891,85.7869 41.6891,87.9535 48.5,87C 47.5562,89.7191 47.2229,92.5525 47.5,95.5C 48.8333,95.5 50.1667,95.5 51.5,95.5C 51.5,98.1667 51.5,100.833 51.5,103.5C 50.1667,103.5 48.8333,103.5 47.5,103.5C 47.1796,106.898 47.513,110.232 48.5,113.5C 49.4461,113.013 50.4461,112.68 51.5,112.5C 55.392,113.855 55.0587,114.689 50.5,115C 51.3366,116.011 51.67,117.178 51.5,118.5C 50.3709,120.628 50.2042,122.961 51,125.5C 51.7475,127.751 53.2475,129.084 55.5,129.5C 60.448,132.076 65.7813,133.743 71.5,134.5C 76.8174,136.155 82.1507,137.822 87.5,139.5C 92.024,150.238 95.8573,161.238 99,172.5C 101.621,173.991 104.455,174.658 107.5,174.5C 110.316,176.217 112.483,175.551 114,172.5C 114.483,173.448 114.649,174.448 114.5,175.5C 118.53,174.494 120.197,171.827 119.5,167.5C 122.167,167.5 124.833,167.5 127.5,167.5C 127.5,170.167 127.5,172.833 127.5,175.5C 143.5,175.5 159.5,175.5 175.5,175.5C 175.5,172.833 175.5,170.167 175.5,167.5C 180.833,167.5 186.167,167.5 191.5,167.5C 191.5,159.5 191.5,151.5 191.5,143.5C 194.167,143.5 196.833,143.5 199.5,143.5C 199.5,140.833 199.5,138.167 199.5,135.5C 202.167,135.5 204.833,135.5 207.5,135.5C 207.5,132.833 207.5,130.167 207.5,127.5C 210.167,127.5 212.833,127.5 215.5,127.5C 215.5,124.833 215.5,122.167 215.5,119.5C 214.167,119.5 212.833,119.5 211.5,119.5C 211.5,116.833 211.5,114.167 211.5,111.5C 215.833,111.5 220.167,111.5 224.5,111.5C 224.5,149.167 224.5,186.833 224.5,224.5C 149.5,224.5 74.5,224.5 -0.5,224.5C -0.5,149.5 -0.5,74.5 -0.5,-0.5 Z"/></g>
<g><path style="opacity:1" fill="#8cf3df" d="M 164.5,127.5 C 165.992,131.818 167.992,135.818 170.5,139.5C 172.526,143.433 171.526,146.1 167.5,147.5C 157.488,143.995 147.821,139.662 138.5,134.5C 140.963,125.894 144.297,117.561 148.5,109.5C 150.695,108.231 152.861,108.231 155,109.5C 157.926,115.688 161.093,121.688 164.5,127.5 Z"/></g>
<g><path style="opacity:1" fill="#0f896e" d="M 55.5,129.5 C 61.1662,130.39 66.4995,132.057 71.5,134.5C 65.7813,133.743 60.448,132.076 55.5,129.5 Z"/></g>
<g><path style="opacity:1" fill="#0c0f14" d="M 224.5,79.5 C 224.5,90.1667 224.5,100.833 224.5,111.5C 220.167,111.5 215.833,111.5 211.5,111.5C 211.5,114.167 211.5,116.833 211.5,119.5C 212.833,119.5 214.167,119.5 215.5,119.5C 215.5,122.167 215.5,124.833 215.5,127.5C 212.833,127.5 210.167,127.5 207.5,127.5C 207.5,130.167 207.5,132.833 207.5,135.5C 204.833,135.5 202.167,135.5 199.5,135.5C 199.5,138.167 199.5,140.833 199.5,143.5C 196.833,143.5 194.167,143.5 191.5,143.5C 191.5,151.5 191.5,159.5 191.5,167.5C 186.167,167.5 180.833,167.5 175.5,167.5C 175.5,170.167 175.5,172.833 175.5,175.5C 159.5,175.5 143.5,175.5 127.5,175.5C 127.5,172.833 127.5,170.167 127.5,167.5C 124.833,167.5 122.167,167.5 119.5,167.5C 120.197,171.827 118.53,174.494 114.5,175.5C 114.649,174.448 114.483,173.448 114,172.5C 112.483,175.551 110.316,176.217 107.5,174.5C 108.23,173.288 109.23,172.288 110.5,171.5C 116.588,158.325 122.921,145.325 129.5,132.5C 131.787,131.381 133.621,129.715 135,127.5C 136.008,127.982 137.175,128.148 138.5,128C 137.692,129.706 136.359,130.539 134.5,130.5C 134.45,133.796 135.783,135.129 138.5,134.5C 147.821,139.662 157.488,143.995 167.5,147.5C 171.526,146.1 172.526,143.433 170.5,139.5C 170.953,138.542 171.619,137.708 172.5,137C 172.167,136.667 171.833,136.333 171.5,136C 173.108,135.342 174.275,135.842 175,137.5C 177.456,135.679 180.289,135.012 183.5,135.5C 183.5,133.833 183.5,132.167 183.5,130.5C 186.167,130.5 188.833,130.5 191.5,130.5C 191.5,126.833 191.5,123.167 191.5,119.5C 193.288,119.785 194.955,119.452 196.5,118.5C 198.738,116.742 199.738,114.408 199.5,111.5C 201.167,111.5 202.833,111.5 204.5,111.5C 204.5,108.833 204.5,106.167 204.5,103.5C 207.167,103.5 209.833,103.5 212.5,103.5C 212.5,98.1667 212.5,92.8333 212.5,87.5C 213.5,87.5 214.5,87.5 215.5,87.5C 215.5,84.8333 215.5,82.1667 215.5,79.5C 218.5,79.5 221.5,79.5 224.5,79.5 Z"/></g>
</svg>
