<?xml version="1.0" encoding="UTF-8"?>
<!DOCTYPE svg PUBLIC "-//W3C//DTD SVG 1.1//EN" "http://www.w3.org/Graphics/SVG/1.1/DTD/svg11.dtd">
<svg xmlns="http://www.w3.org/2000/svg" version="1.1" width="466px" height="466px" style="shape-rendering:geometricPrecision; text-rendering:geometricPrecision; image-rendering:optimizeQuality; fill-rule:evenodd; clip-rule:evenodd" xmlns:xlink="http://www.w3.org/1999/xlink">
<g><path style="opacity:1" fill="#ffc085" d="M 151.5,100.5 C 155.164,103.335 159.164,105.668 163.5,107.5C 164.492,107.328 165.158,107.662 165.5,108.5C 165.973,109.906 166.973,110.573 168.5,110.5C 172.614,114.064 176.948,117.397 181.5,120.5C 181.833,120.5 182.167,120.5 182.5,120.5C 185.118,123.785 188.118,126.785 191.5,129.5C 192.5,129.833 193.167,130.5 193.5,131.5C 196.167,134.833 199.167,137.833 202.5,140.5C 204.785,144.727 207.785,148.393 211.5,151.5C 211.703,153.044 212.37,154.378 213.5,155.5C 213.043,156.298 212.376,156.631 211.5,156.5C 210.833,153.833 209.167,152.167 206.5,151.5C 205.415,149.413 203.749,148.08 201.5,147.5C 200.415,145.413 198.749,144.08 196.5,143.5C 196.027,142.094 195.027,141.427 193.5,141.5C 190.305,138.148 186.638,135.315 182.5,133C 175.225,129.194 167.891,125.694 160.5,122.5C 159.458,121.209 158.292,121.209 157,122.5C 140,153.167 123,183.833 106,214.5C 105.013,218.348 106.513,220.348 110.5,220.5C 112.153,220.66 113.486,221.326 114.5,222.5C 116.629,224.95 119.296,226.617 122.5,227.5C 124.147,229.326 126.147,230.66 128.5,231.5C 132.302,235.237 136.635,238.237 141.5,240.5C 142.5,240.833 143.167,241.5 143.5,242.5C 146.627,245.898 150.293,248.565 154.5,250.5C 155.5,250.833 156.167,251.5 156.5,252.5C 157.911,254.914 159.911,256.581 162.5,257.5C 170.5,266.167 178.833,274.5 187.5,282.5C 188.08,284.749 189.413,286.415 191.5,287.5C 191.738,289.404 192.738,290.738 194.5,291.5C 196.925,295.352 199.591,299.019 202.5,302.5C 209.948,314.394 216.614,326.728 222.5,339.5C 223.11,340.391 223.443,341.391 223.5,342.5C 225.37,348.777 227.037,355.11 228.5,361.5C 227.662,361.842 227.328,362.508 227.5,363.5C 226.597,359.793 224.93,356.46 222.5,353.5C 221.596,352.791 221.263,351.791 221.5,350.5C 222.491,348.877 221.824,347.877 219.5,347.5C 218.326,346.486 217.66,345.153 217.5,343.5C 216.617,340.296 214.95,337.629 212.5,335.5C 211.833,334.5 211.167,333.5 210.5,332.5C 210.25,330.326 209.25,328.659 207.5,327.5C 206.99,324.326 205.323,321.992 202.5,320.5C 202.262,318.596 201.262,317.262 199.5,316.5C 197.772,312.357 195.106,309.024 191.5,306.5C 188.514,301.848 184.847,297.848 180.5,294.5C 177.806,289.806 174.139,286.139 169.5,283.5C 166.437,279.434 162.771,276.101 158.5,273.5C 154.742,269.408 150.409,266.074 145.5,263.5C 140.786,259.454 135.786,255.788 130.5,252.5C 127.106,249.779 123.439,247.446 119.5,245.5C 118.508,245.672 117.842,245.338 117.5,244.5C 117.027,243.094 116.027,242.427 114.5,242.5C 109.061,238.115 103.061,234.781 96.5,232.5C 92.2219,229.355 87.5552,226.688 82.5,224.5C 81.5713,223.311 81.238,221.978 81.5,220.5C 83.9501,218.371 85.6167,215.704 86.5,212.5C 88.9689,211.393 89.9689,209.393 89.5,206.5C 89.6596,204.847 90.3263,203.514 91.5,202.5C 94.6232,199.024 96.9565,195.024 98.5,190.5C 98.6596,188.847 99.3263,187.514 100.5,186.5C 101.674,185.486 102.34,184.153 102.5,182.5C 105.623,179.024 107.957,175.024 109.5,170.5C 109.66,168.847 110.326,167.514 111.5,166.5C 115.017,161.466 118.017,156.133 120.5,150.5C 120.557,149.391 120.89,148.391 121.5,147.5C 123.588,145.664 124.921,143.331 125.5,140.5C 127.104,139.713 127.771,138.38 127.5,136.5C 128.906,136.027 129.573,135.027 129.5,133.5C 129.733,131.938 130.4,130.605 131.5,129.5C 134.258,126.322 136.258,122.655 137.5,118.5C 139.176,117.817 139.843,116.483 139.5,114.5C 139.427,112.973 140.094,111.973 141.5,111.5C 144.258,108.322 146.258,104.655 147.5,100.5C 148.833,99.1667 150.167,99.1667 151.5,100.5 Z"/></g>
<g><path style="opacity:1" fill="#ffc085" d="M 318.5,100.5 C 319.68,103.54 321.347,106.206 323.5,108.5C 324.338,108.842 324.672,109.508 324.5,110.5C 326.74,116.65 329.74,122.316 333.5,127.5C 334.338,127.842 334.672,128.508 334.5,129.5C 336.997,135.165 339.997,140.498 343.5,145.5C 344.338,145.842 344.672,146.508 344.5,147.5C 346.823,154.153 350.156,160.153 354.5,165.5C 355.674,166.514 356.34,167.847 356.5,169.5C 361.741,180.988 367.741,191.988 374.5,202.5C 376.823,209.153 380.156,215.153 384.5,220.5C 384.719,221.675 384.386,222.675 383.5,223.5C 334.824,246.341 293.99,279.008 261,321.5C 250.581,336.335 242.248,352.335 236,369.5C 235.333,367.833 235.333,366.167 236,364.5C 238.155,357.876 239.988,351.209 241.5,344.5C 241.557,343.391 241.89,342.391 242.5,341.5C 245.351,336.459 247.684,331.125 249.5,325.5C 250.906,325.027 251.573,324.027 251.5,322.5C 251.328,321.508 251.662,320.842 252.5,320.5C 255.335,316.836 257.668,312.836 259.5,308.5C 260.906,308.027 261.573,307.027 261.5,305.5C 261.427,303.973 262.094,302.973 263.5,302.5C 266.933,299.399 269.6,295.732 271.5,291.5C 271.833,290.5 272.5,289.833 273.5,289.5C 277.203,285.798 280.537,281.798 283.5,277.5C 285.167,276.5 286.5,275.167 287.5,273.5C 291.167,270.5 294.5,267.167 297.5,263.5C 300.089,262.581 302.089,260.914 303.5,258.5C 305.833,256.833 307.833,254.833 309.5,252.5C 311.404,252.262 312.738,251.262 313.5,249.5C 316.81,247.518 319.81,245.185 322.5,242.5C 322.833,241.5 323.5,240.833 324.5,240.5C 328.049,239.277 331.049,237.277 333.5,234.5C 335.027,234.573 336.027,233.906 336.5,232.5C 338.404,232.262 339.738,231.262 340.5,229.5C 344.683,227.913 348.35,225.579 351.5,222.5C 353.517,221.471 355.517,220.471 357.5,219.5C 359.252,219.582 360.252,218.749 360.5,217C 359.052,213.084 357.052,209.584 354.5,206.5C 353.599,205.71 352.932,204.71 352.5,203.5C 350.613,198.059 347.947,193.059 344.5,188.5C 342.75,187.341 341.75,185.674 341.5,183.5C 339.946,178.724 337.613,174.39 334.5,170.5C 333.662,170.158 333.328,169.492 333.5,168.5C 333.573,166.973 332.906,165.973 331.5,165.5C 330.326,164.486 329.66,163.153 329.5,161.5C 328,157.827 326,154.494 323.5,151.5C 321.642,149.117 320.308,146.45 319.5,143.5C 318.502,139.495 316.502,136.161 313.5,133.5C 312.4,132.395 311.733,131.062 311.5,129.5C 311.539,126.911 310.539,124.911 308.5,123.5C 307.341,121.623 305.674,121.123 303.5,122C 284.472,130.374 267.639,141.874 253,156.5C 252.536,155.906 252.369,155.239 252.5,154.5C 256.592,150.742 259.926,146.409 262.5,141.5C 262.5,140.833 262.833,140.5 263.5,140.5C 266.833,137.833 269.833,134.833 272.5,131.5C 272.5,130.833 272.833,130.5 273.5,130.5C 276.859,127.471 280.192,124.471 283.5,121.5C 284.5,121.167 285.167,120.5 285.5,119.5C 287.749,118.92 289.415,117.587 290.5,115.5C 292.777,114.551 294.777,113.218 296.5,111.5C 298.027,111.573 299.027,110.906 299.5,109.5C 305.165,107.003 310.498,104.003 315.5,100.5C 316.5,99.1667 317.5,99.1667 318.5,100.5 Z"/></g>
<g><path style="opacity:0.19" fill="#fffaf7" d="M 318.5,100.5 C 321.639,102.085 323.306,104.752 323.5,108.5C 321.347,106.206 319.68,103.54 318.5,100.5 Z"/></g>
<g><path style="opacity:0.145" fill="#fff8f3" d="M 151.5,100.5 C 156.165,101.828 160.165,104.161 163.5,107.5C 159.164,105.668 155.164,103.335 151.5,100.5 Z"/></g>
<g><path style="opacity:0.42" fill="#fff2e6" d="M 315.5,100.5 C 310.498,104.003 305.165,107.003 299.5,109.5C 303.896,104.965 309.23,101.965 315.5,100.5 Z"/></g>
<g><path style="opacity:0.071" fill="#fff8f2" d="M 147.5,100.5 C 146.258,104.655 144.258,108.322 141.5,111.5C 142.214,107.067 144.214,103.4 147.5,100.5 Z"/></g>
<g><path style="opacity:0.031" fill="#fff7f1" d="M 165.5,108.5 C 167.027,108.427 168.027,109.094 168.5,110.5C 166.973,110.573 165.973,109.906 165.5,108.5 Z"/></g>
<g><path style="opacity:0.816" fill="#ffe6ce" d="M 299.5,109.5 C 299.027,110.906 298.027,111.573 296.5,111.5C 296.973,110.094 297.973,109.427 299.5,109.5 Z"/></g>
<g><path style="opacity:0.126" fill="#fff8f2" d="M 168.5,110.5 C 173.852,112.657 178.186,115.991 181.5,120.5C 176.948,117.397 172.614,114.064 168.5,110.5 Z"/></g>
<g><path style="opacity:0.235" fill="#fff8f2" d="M 296.5,111.5 C 294.777,113.218 292.777,114.551 290.5,115.5C 291.708,112.956 293.708,111.622 296.5,111.5 Z"/></g>
<g><path style="opacity:0.25" fill="#fffaf6" d="M 324.5,110.5 C 328.813,115.458 331.813,121.124 333.5,127.5C 329.74,122.316 326.74,116.65 324.5,110.5 Z"/></g>
<g><path style="opacity:0.949" fill="#ffdfc2" d="M 139.5,114.5 C 139.843,116.483 139.176,117.817 137.5,118.5C 137.66,116.847 138.326,115.514 139.5,114.5 Z"/></g>
<g><path style="opacity:0.831" fill="#ffe8d3" d="M 290.5,115.5 C 289.415,117.587 287.749,118.92 285.5,119.5C 286.585,117.413 288.251,116.08 290.5,115.5 Z"/></g>
<g><path style="opacity:0.22" fill="#fffbf7" d="M 285.5,119.5 C 285.167,120.5 284.5,121.167 283.5,121.5C 283.5,120.167 284.167,119.5 285.5,119.5 Z"/></g>
<g><path style="opacity:0.12" fill="#fff5ed" d="M 182.5,120.5 C 186.522,122.522 189.522,125.522 191.5,129.5C 188.118,126.785 185.118,123.785 182.5,120.5 Z"/></g>
<g><path style="opacity:0.29" fill="#fff6ef" d="M 137.5,118.5 C 136.258,122.655 134.258,126.322 131.5,129.5C 131.491,127.692 131.991,126.025 133,124.5C 134.277,122.253 135.777,120.253 137.5,118.5 Z"/></g>
<g><path style="opacity:0.271" fill="#fff2e6" d="M 283.5,121.5 C 280.192,124.471 276.859,127.471 273.5,130.5C 275.562,126.105 278.896,123.105 283.5,121.5 Z"/></g>
<g><path style="opacity:0.314" fill="#fff6ef" d="M 308.5,123.5 C 285.839,131.959 266.173,145.125 249.5,163C 248.365,163.749 247.365,163.583 246.5,162.5C 248.034,159.407 250.034,156.74 252.5,154.5C 252.369,155.239 252.536,155.906 253,156.5C 267.639,141.874 284.472,130.374 303.5,122C 305.674,121.123 307.341,121.623 308.5,123.5 Z"/></g>
<g><path style="opacity:0.51" fill="#fff1e3" d="M 308.5,123.5 C 310.539,124.911 311.539,126.911 311.5,129.5C 309.992,127.819 308.992,125.819 308.5,123.5 Z"/></g>
<g><path style="opacity:0.095" fill="#fff6ef" d="M 108.5,139.5 C 98.4075,136.137 88.0741,133.803 77.5,132.5C 75.7672,141.439 73.4338,150.106 70.5,158.5C 71.9521,149.526 73.9521,140.693 76.5,132C 87.8916,131.682 98.5583,134.182 108.5,139.5 Z"/></g>
<g><path style="opacity:0.071" fill="#fff6ee" d="M 193.5,131.5 C 197.5,133.5 200.5,136.5 202.5,140.5C 199.167,137.833 196.167,134.833 193.5,131.5 Z"/></g>
<g><path style="opacity:0.212" fill="#fffdfb" d="M 388.5,131.5 C 389.931,131.881 390.764,132.881 391,134.5C 392.649,140.761 393.816,147.094 394.5,153.5C 392.211,146.353 390.211,139.02 388.5,131.5 Z"/></g>
<g><path style="opacity:1" fill="#ffc085" d="M 108.5,139.5 C 110.403,139.796 112.07,140.463 113.5,141.5C 112.866,144.937 111.533,148.104 109.5,151C 107.19,151.497 104.857,151.663 102.5,151.5C 102.167,151.5 101.833,151.5 101.5,151.5C 99.3621,150.596 97.0288,149.929 94.5,149.5C 93.3527,149.818 92.5194,150.484 92,151.5C 83.4213,185.648 74.9213,219.815 66.5,254C 66.5852,255.107 66.9186,256.107 67.5,257C 73.7853,258.82 80.1187,260.32 86.5,261.5C 87.791,261.263 88.791,261.596 89.5,262.5C 97.2242,266.02 105.224,269.02 113.5,271.5C 115.553,271.402 117.22,272.069 118.5,273.5C 124.412,277.288 130.745,280.288 137.5,282.5C 138.167,282.833 138.833,283.167 139.5,283.5C 143.995,287.251 148.995,290.251 154.5,292.5C 155.492,292.328 156.158,292.662 156.5,293.5C 160.148,296.66 164.148,299.327 168.5,301.5C 168.973,302.906 169.973,303.573 171.5,303.5C 174.607,307.215 178.273,310.215 182.5,312.5C 183.167,312.5 183.5,312.833 183.5,313.5C 185.9,316.903 188.9,319.57 192.5,321.5C 195.101,325.771 198.434,329.437 202.5,332.5C 203.167,332.5 203.5,332.833 203.5,333.5C 208.512,340.205 213.512,346.872 218.5,353.5C 219.079,356.331 220.412,358.664 222.5,360.5C 223.227,362.954 224.227,365.287 225.5,367.5C 225.5,368.167 225.167,368.5 224.5,368.5C 221.209,363.873 217.542,359.54 213.5,355.5C 213.5,354.167 212.833,353.5 211.5,353.5C 209.5,349.5 206.5,346.5 202.5,344.5C 202.5,344.167 202.5,343.833 202.5,343.5C 199.789,339.788 196.456,336.788 192.5,334.5C 191.833,334.167 191.167,333.833 190.5,333.5C 188.12,330.119 185.12,327.453 181.5,325.5C 181.027,324.094 180.027,323.427 178.5,323.5C 174.376,319.719 169.709,316.719 164.5,314.5C 159.621,309.891 153.954,306.558 147.5,304.5C 142.086,300.46 136.086,297.46 129.5,295.5C 127.824,293.166 125.491,292.166 122.5,292.5C 115.274,288.533 107.608,285.533 99.5,283.5C 99.1667,283.5 98.8333,283.5 98.5,283.5C 86.9567,278.655 74.9567,274.988 62.5,272.5C 60.4855,271.076 58.1522,270.41 55.5,270.5C 52.4318,270.453 49.4318,269.953 46.5,269C 45.5939,267.301 45.2606,265.467 45.5,263.5C 47.2809,259.8 48.2809,255.8 48.5,251.5C 48.5465,248.031 49.2132,244.698 50.5,241.5C 52.591,236.809 53.9244,231.809 54.5,226.5C 56.9265,219.789 58.5932,212.789 59.5,205.5C 59.5172,203.435 59.8505,201.435 60.5,199.5C 64.7308,187.91 67.7308,175.91 69.5,163.5C 69.6287,161.784 69.962,160.117 70.5,158.5C 73.4338,150.106 75.7672,141.439 77.5,132.5C 88.0741,133.803 98.4075,136.137 108.5,139.5 Z"/></g>
<g><path style="opacity:1" fill="#ffc085" d="M 385.5,131.5 C 386.5,131.5 387.5,131.5 388.5,131.5C 390.211,139.02 392.211,146.353 394.5,153.5C 396.913,167.815 400.247,181.815 404.5,195.5C 407.072,209.454 410.406,223.121 414.5,236.5C 416.513,247.221 418.847,257.888 421.5,268.5C 420.5,268.5 419.5,268.5 418.5,268.5C 415.848,268.41 413.515,269.076 411.5,270.5C 410.833,270.5 410.167,270.5 409.5,270.5C 406.848,270.41 404.515,271.076 402.5,272.5C 395.522,272.993 388.856,274.659 382.5,277.5C 375.302,278.675 368.635,281.009 362.5,284.5C 320.828,297.761 284.662,320.094 254,351.5C 248.536,357.784 243.703,364.45 239.5,371.5C 238.21,372.058 237.377,373.058 237,374.5C 236.601,374.272 236.435,373.938 236.5,373.5C 237.455,371.254 238.122,368.921 238.5,366.5C 240.179,366.715 241.179,366.048 241.5,364.5C 241.328,363.508 241.662,362.842 242.5,362.5C 245.241,360.025 247.241,357.025 248.5,353.5C 249.906,353.027 250.573,352.027 250.5,350.5C 250.66,348.847 251.326,347.514 252.5,346.5C 253.906,346.027 254.573,345.027 254.5,343.5C 255.906,343.027 256.573,342.027 256.5,340.5C 258.727,338.393 260.727,336.06 262.5,333.5C 266.234,330.769 269.234,327.436 271.5,323.5C 272.167,323.5 272.5,323.167 272.5,322.5C 276.436,320.234 279.769,317.234 282.5,313.5C 286.463,310.871 290.129,307.871 293.5,304.5C 295.027,304.573 296.027,303.906 296.5,302.5C 298.027,302.573 299.027,301.906 299.5,300.5C 303.392,298.938 306.725,296.605 309.5,293.5C 310.605,292.4 311.938,291.733 313.5,291.5C 315.853,290.66 317.853,289.326 319.5,287.5C 319.842,286.662 320.508,286.328 321.5,286.5C 323.819,286.008 325.819,285.008 327.5,283.5C 327.842,282.662 328.508,282.328 329.5,282.5C 331.027,282.573 332.027,281.906 332.5,280.5C 337.919,278.956 342.919,276.622 347.5,273.5C 348.209,272.596 349.209,272.263 350.5,272.5C 353.649,272.585 356.316,271.585 358.5,269.5C 364.349,267.403 370.015,265.069 375.5,262.5C 375.833,262.5 376.167,262.5 376.5,262.5C 384.136,261.01 391.636,259.01 399,256.5C 398.654,249.837 397.154,243.503 394.5,237.5C 394.5,237.167 394.5,236.833 394.5,236.5C 394.946,233.99 394.28,231.99 392.5,230.5C 392.5,230.167 392.5,229.833 392.5,229.5C 390.747,218.486 388.08,207.82 384.5,197.5C 383.525,194.933 382.858,192.267 382.5,189.5C 380.824,178.493 378.157,167.827 374.5,157.5C 373.549,156.081 373.216,154.415 373.5,152.5C 373.443,151.391 373.11,150.391 372.5,149.5C 372.083,148.876 371.416,148.543 370.5,148.5C 367.651,148.964 364.984,149.631 362.5,150.5C 360.236,151.219 357.903,151.552 355.5,151.5C 354.326,150.486 353.66,149.153 353.5,147.5C 352.359,145.451 352.359,143.451 353.5,141.5C 356.855,141.31 359.855,140.31 362.5,138.5C 370.22,135.992 377.887,133.659 385.5,131.5 Z"/></g>
<g><path style="opacity:0.388" fill="#fff6ee" d="M 385.5,131.5 C 377.887,133.659 370.22,135.992 362.5,138.5C 361.833,138.5 361.167,138.5 360.5,138.5C 368.254,134.475 376.588,132.142 385.5,131.5 Z"/></g>
<g><path style="opacity:0.333" fill="#fff4e9" d="M 129.5,133.5 C 129.573,135.027 128.906,136.027 127.5,136.5C 127.427,134.973 128.094,133.973 129.5,133.5 Z"/></g>
<g><path style="opacity:0.174" fill="#fff9f4" d="M 160.5,122.5 C 167.891,125.694 175.225,129.194 182.5,133C 186.638,135.315 190.305,138.148 193.5,141.5C 182.655,134.911 171.655,128.577 160.5,122.5 Z"/></g>
<g><path style="opacity:0.192" fill="#fffaf6" d="M 334.5,129.5 C 337.135,132.079 339.301,135.079 341,138.5C 342.411,140.65 343.245,142.984 343.5,145.5C 339.997,140.498 336.997,135.165 334.5,129.5 Z"/></g>
<g><path style="opacity:0.314" fill="#fff4ea" d="M 272.5,131.5 C 269.833,134.833 266.833,137.833 263.5,140.5C 265.5,136.5 268.5,133.5 272.5,131.5 Z"/></g>
<g><path style="opacity:0.435" fill="#fff3e8" d="M 127.5,136.5 C 127.771,138.38 127.104,139.713 125.5,140.5C 125.66,138.847 126.326,137.514 127.5,136.5 Z"/></g>
<g><path style="opacity:0.902" fill="#ffd8b4" d="M 360.5,138.5 C 361.167,138.5 361.833,138.5 362.5,138.5C 359.855,140.31 356.855,141.31 353.5,141.5C 355.509,139.935 357.843,138.935 360.5,138.5 Z"/></g>
<g><path style="opacity:0.506" fill="#fff9f3" d="M 113.5,141.5 C 114.478,141.811 115.145,142.478 115.5,143.5C 114.241,148.049 111.574,151.382 107.5,153.5C 105.664,152.972 103.997,152.306 102.5,151.5C 104.857,151.663 107.19,151.497 109.5,151C 111.533,148.104 112.866,144.937 113.5,141.5 Z"/></g>
<g><path style="opacity:0.286" fill="#fff8f2" d="M 125.5,140.5 C 124.921,143.331 123.588,145.664 121.5,147.5C 121.555,144.386 122.888,142.052 125.5,140.5 Z"/></g>
<g><path style="opacity:0.176" fill="#fffcf9" d="M 193.5,141.5 C 195.027,141.427 196.027,142.094 196.5,143.5C 194.973,143.573 193.973,142.906 193.5,141.5 Z"/></g>
<g><path style="opacity:0.314" fill="#fff9f5" d="M 313.5,133.5 C 316.502,136.161 318.502,139.495 319.5,143.5C 316.498,140.839 314.498,137.505 313.5,133.5 Z"/></g>
<g><path style="opacity:0.169" fill="#fff5ed" d="M 202.5,140.5 C 206.628,143.29 209.628,146.957 211.5,151.5C 207.785,148.393 204.785,144.727 202.5,140.5 Z"/></g>
<g><path style="opacity:0.159" fill="#fff6ed" d="M 353.5,141.5 C 352.359,143.451 352.359,145.451 353.5,147.5C 352.053,146.866 351.387,145.699 351.5,144C 351.684,142.624 352.351,141.791 353.5,141.5 Z"/></g>
<g><path style="opacity:0.194" fill="#fffbf7" d="M 196.5,143.5 C 198.749,144.08 200.415,145.413 201.5,147.5C 199.251,146.92 197.585,145.587 196.5,143.5 Z"/></g>
<g><path style="opacity:0.098" fill="#fff9f5" d="M 201.5,147.5 C 203.749,148.08 205.415,149.413 206.5,151.5C 203.937,151.269 202.27,149.935 201.5,147.5 Z"/></g>
<g><path style="opacity:0.337" fill="#fff6ee" d="M 262.5,141.5 C 259.926,146.409 256.592,150.742 252.5,154.5C 255.074,149.591 258.408,145.258 262.5,141.5 Z"/></g>
<g><path style="opacity:1" fill="#ffd6b0" d="M 372.5,149.5 C 369.214,150.207 365.881,150.54 362.5,150.5C 364.984,149.631 367.651,148.964 370.5,148.5C 371.416,148.543 372.083,148.876 372.5,149.5 Z"/></g>
<g><path style="opacity:0.088" fill="#fff8f1" d="M 372.5,149.5 C 373.11,150.391 373.443,151.391 373.5,152.5C 368.291,151.168 363.125,151.502 358,153.5C 356.699,153.361 355.866,152.695 355.5,151.5C 357.903,151.552 360.236,151.219 362.5,150.5C 365.881,150.54 369.214,150.207 372.5,149.5 Z"/></g>
<g><path style="opacity:0.945" fill="#ffe8d3" d="M 206.5,151.5 C 209.167,152.167 210.833,153.833 211.5,156.5C 209.5,155.167 207.833,153.5 206.5,151.5 Z"/></g>
<g><path style="opacity:0.073" fill="#fffaf6" d="M 323.5,151.5 C 326,154.494 328,157.827 329.5,161.5C 326.498,158.839 324.498,155.505 323.5,151.5 Z"/></g>
<g><path style="opacity:0.125" fill="#fffcf9" d="M 211.5,151.5 C 214.966,155.074 217.966,159.074 220.5,163.5C 220.192,164.308 219.692,164.975 219,165.5C 215.912,162.919 213.412,159.919 211.5,156.5C 212.376,156.631 213.043,156.298 213.5,155.5C 212.37,154.378 211.703,153.044 211.5,151.5 Z"/></g>
<g><path style="opacity:0.131" fill="#fffaf6" d="M 344.5,147.5 C 348.844,152.847 352.177,158.847 354.5,165.5C 350.156,160.153 346.823,154.153 344.5,147.5 Z"/></g>
<g><path style="opacity:0.235" fill="#fff3e9" d="M 120.5,150.5 C 118.017,156.133 115.017,161.466 111.5,166.5C 111.755,163.984 112.589,161.65 114,159.5C 115.699,156.079 117.865,153.079 120.5,150.5 Z"/></g>
<g><path style="opacity:0.401" fill="#fff6ef" d="M 101.5,151.5 C 98.2893,151.012 95.456,151.679 93,153.5C 84.7929,186.991 76.6262,220.491 68.5,254C 68.6448,254.772 68.9781,255.439 69.5,256C 75.4975,257.167 81.1641,259 86.5,261.5C 80.1187,260.32 73.7853,258.82 67.5,257C 66.9186,256.107 66.5852,255.107 66.5,254C 74.9213,219.815 83.4213,185.648 92,151.5C 92.5194,150.484 93.3527,149.818 94.5,149.5C 97.0288,149.929 99.3621,150.596 101.5,151.5 Z"/></g>
<g><path style="opacity:0.096" fill="#fff5ec" d="M 374.5,157.5 C 378.157,167.827 380.824,178.493 382.5,189.5C 378.916,179.164 376.249,168.498 374.5,157.5 Z"/></g>
<g><path style="opacity:0.012" fill="#fff7f0" d="M 331.5,165.5 C 332.906,165.973 333.573,166.973 333.5,168.5C 332.094,168.027 331.427,167.027 331.5,165.5 Z"/></g>
<g><path style="opacity:0.371" fill="#fff9f4" d="M 160.5,122.5 C 159.542,122.953 158.708,123.619 158,124.5C 143.615,150.931 128.949,177.264 114,203.5C 111.826,208.035 109.66,212.535 107.5,217C 108.544,218.174 109.544,219.341 110.5,220.5C 106.513,220.348 105.013,218.348 106,214.5C 123,183.833 140,153.167 157,122.5C 158.292,121.209 159.458,121.209 160.5,122.5 Z"/></g>
<g><path style="opacity:0.228" fill="#fffbf8" d="M 394.5,153.5 C 398.825,167.167 402.158,181.167 404.5,195.5C 400.247,181.815 396.913,167.815 394.5,153.5 Z"/></g>
<g><path style="opacity:0.286" fill="#fff4eb" d="M 334.5,170.5 C 337.613,174.39 339.946,178.724 341.5,183.5C 338.387,179.61 336.054,175.276 334.5,170.5 Z"/></g>
<g><path style="opacity:0.282" fill="#fff3e8" d="M 109.5,170.5 C 107.957,175.024 105.623,179.024 102.5,182.5C 103.828,177.835 106.161,173.835 109.5,170.5 Z"/></g>
<g><path style="opacity:0.078" fill="#fff9f5" d="M 356.5,169.5 C 361.559,177.27 366.392,185.27 371,193.5C 372.741,196.309 373.908,199.309 374.5,202.5C 367.741,191.988 361.741,180.988 356.5,169.5 Z"/></g>
<g><path style="opacity:0.814" fill="#ffd9b6" d="M 448.5,180.5 C 448.818,185.032 448.485,189.366 447.5,193.5C 447.5,189.167 447.5,184.833 447.5,180.5C 435.15,180.382 422.817,180.715 410.5,181.5C 417.772,179.983 425.272,179.316 433,179.5C 438.344,179.501 443.511,179.834 448.5,180.5 Z"/></g>
<g><path style="opacity:1" fill="#ffc085" d="M 47.5,180.5 C 49.8333,180.5 52.1667,180.5 54.5,180.5C 54.9817,181.416 55.315,182.416 55.5,183.5C 54.4144,186.42 53.7477,189.42 53.5,192.5C 48.1667,192.5 42.8333,192.5 37.5,192.5C 37.807,217.333 38.1403,242.166 38.5,267C 38.5009,279.519 39.1676,291.686 40.5,303.5C 46.1667,303.5 51.8333,303.5 57.5,303.5C 73.8017,304.653 90.135,306.653 106.5,309.5C 111.231,311.261 116.231,312.261 121.5,312.5C 123.292,312.366 124.958,312.699 126.5,313.5C 134.233,316.744 142.233,319.411 150.5,321.5C 152.403,321.796 154.07,322.463 155.5,323.5C 161.018,326.425 166.685,329.092 172.5,331.5C 174.153,331.66 175.486,332.326 176.5,333.5C 181.233,336.89 186.233,339.89 191.5,342.5C 194.808,345.795 198.474,348.795 202.5,351.5C 202.973,352.906 203.973,353.573 205.5,353.5C 213.153,360.154 220.153,367.487 226.5,375.5C 225.833,375.5 225.167,375.5 224.5,375.5C 221.279,371.224 217.279,367.891 212.5,365.5C 212.027,364.094 211.027,363.427 209.5,363.5C 205.521,359.506 200.855,356.506 195.5,354.5C 193.073,352.442 190.407,350.609 187.5,349C 182.876,346.828 178.209,344.994 173.5,343.5C 164.733,338.798 155.4,335.465 145.5,333.5C 145.167,333.5 144.833,333.5 144.5,333.5C 130.677,328.463 116.344,325.129 101.5,323.5C 96.7312,322.111 91.7312,321.444 86.5,321.5C 80.8791,320.646 75.2124,320.313 69.5,320.5C 53.6573,319.292 37.6573,319.292 21.5,320.5C 21.0194,303.669 20.3527,287.003 19.5,270.5C 18.663,253.514 18.3296,236.514 18.5,219.5C 18.5,206.5 18.5,193.5 18.5,180.5C 28.1667,180.5 37.8333,180.5 47.5,180.5 Z"/></g>
<g><path style="opacity:1" fill="#ffbf84" d="M 447.5,193.5 C 447.044,228.838 446.377,264.171 445.5,299.5C 444.509,306.313 444.175,313.313 444.5,320.5C 439.5,320.5 434.5,320.5 429.5,320.5C 422.675,319.834 415.675,319.5 408.5,319.5C 397.296,319.356 386.296,320.023 375.5,321.5C 371.511,321.116 367.845,321.783 364.5,323.5C 357.045,323.868 349.712,324.868 342.5,326.5C 338.521,326.742 334.854,327.742 331.5,329.5C 331.167,329.5 330.833,329.5 330.5,329.5C 326.838,329.723 323.505,330.723 320.5,332.5C 296.025,339.288 273.358,349.955 252.5,364.5C 251.662,364.158 251.328,363.492 251.5,362.5C 254.473,360.194 257.14,357.527 259.5,354.5C 259.833,353.5 260.5,352.833 261.5,352.5C 265.866,349.984 269.866,346.984 273.5,343.5C 275.404,343.262 276.738,342.262 277.5,340.5C 282.024,338.957 286.024,336.623 289.5,333.5C 290.514,332.326 291.847,331.66 293.5,331.5C 299.587,329.622 305.254,326.955 310.5,323.5C 311.391,322.89 312.391,322.557 313.5,322.5C 322.373,319.877 331.04,316.877 339.5,313.5C 341.379,312.659 343.379,312.325 345.5,312.5C 354.32,311.033 362.987,309.366 371.5,307.5C 384.268,305.757 396.934,304.424 409.5,303.5C 414.833,303.5 420.167,303.5 425.5,303.5C 426.117,303.389 426.617,303.056 427,302.5C 427.641,267.145 428.474,231.812 429.5,196.5C 429.471,194.971 428.804,193.804 427.5,193C 425.19,192.503 422.857,192.337 420.5,192.5C 418.052,191.527 415.385,191.194 412.5,191.5C 412.737,190.209 412.404,189.209 411.5,188.5C 411.007,186.194 410.674,183.861 410.5,181.5C 422.817,180.715 435.15,180.382 447.5,180.5C 447.5,184.833 447.5,189.167 447.5,193.5 Z"/></g>
<g><path style="opacity:0.425" fill="#fffcfa" d="M 448.5,180.5 C 449.695,180.866 450.361,181.699 450.5,183C 448.445,228.96 446.778,274.794 445.5,320.5C 445.5,313.5 445.5,306.5 445.5,299.5C 446.377,264.171 447.044,228.838 447.5,193.5C 448.485,189.366 448.818,185.032 448.5,180.5 Z"/></g>
<g><path style="opacity:0.354" fill="#fffbf8" d="M 54.5,180.5 C 56.2517,180.418 57.2517,181.251 57.5,183C 56.8729,185.135 56.3729,187.302 56,189.5C 55.6232,190.942 54.7899,191.942 53.5,192.5C 53.7477,189.42 54.4144,186.42 55.5,183.5C 55.315,182.416 54.9817,181.416 54.5,180.5 Z"/></g>
<g><path style="opacity:0.471" fill="#fff0e3" d="M 69.5,163.5 C 67.7308,175.91 64.7308,187.91 60.5,199.5C 62.8962,187.249 65.8962,175.249 69.5,163.5 Z"/></g>
<g><path style="opacity:0.298" fill="#fffbf7" d="M 102.5,182.5 C 102.34,184.153 101.674,185.486 100.5,186.5C 100.229,184.62 100.896,183.287 102.5,182.5 Z"/></g>
<g><path style="opacity:0.082" fill="#fff6ee" d="M 410.5,181.5 C 410.674,183.861 411.007,186.194 411.5,188.5C 411.5,189.167 411.5,189.833 411.5,190.5C 409.713,187.591 409.379,184.591 410.5,181.5 Z"/></g>
<g><path style="opacity:0.825" fill="#ffe4cc" d="M 47.5,180.5 C 37.8333,180.5 28.1667,180.5 18.5,180.5C 18.5,193.5 18.5,206.5 18.5,219.5C 17.4713,206.66 16.9713,193.66 17,180.5C 27.2433,178.247 37.41,178.247 47.5,180.5 Z"/></g>
<g><path style="opacity:0.996" fill="#ffd7b3" d="M 411.5,188.5 C 412.404,189.209 412.737,190.209 412.5,191.5C 415.385,191.194 418.052,191.527 420.5,192.5C 417.833,192.5 415.167,192.5 412.5,192.5C 411.662,192.158 411.328,191.492 411.5,190.5C 411.5,189.833 411.5,189.167 411.5,188.5 Z"/></g>
<g><path style="opacity:0.27" fill="#fffbf8" d="M 53.5,192.5 C 49.9694,193.23 46.3027,193.896 42.5,194.5C 40.2347,193.719 38.9014,194.719 38.5,197.5C 39.2013,232.99 39.868,268.323 40.5,303.5C 39.1676,291.686 38.5009,279.519 38.5,267C 38.1403,242.166 37.807,217.333 37.5,192.5C 42.8333,192.5 48.1667,192.5 53.5,192.5 Z"/></g>
<g><path style="opacity:0.102" fill="#fff4e9" d="M 98.5,190.5 C 96.9565,195.024 94.6232,199.024 91.5,202.5C 92.8278,197.835 95.1611,193.835 98.5,190.5 Z"/></g>
<g><path style="opacity:0.325" fill="#fff5ec" d="M 344.5,188.5 C 347.947,193.059 350.613,198.059 352.5,203.5C 349.053,198.941 346.387,193.941 344.5,188.5 Z"/></g>
<g><path style="opacity:0.127" fill="#fff5ec" d="M 384.5,197.5 C 388.08,207.82 390.747,218.486 392.5,229.5C 388.915,219.159 386.248,208.493 384.5,197.5 Z"/></g>
<g><path style="opacity:0.992" fill="#ffd5af" d="M 89.5,206.5 C 89.9689,209.393 88.9689,211.393 86.5,212.5C 86.9925,210.181 87.9925,208.181 89.5,206.5 Z"/></g>
<g><path style="opacity:0.361" fill="#fff7f1" d="M 354.5,206.5 C 357.052,209.584 359.052,213.084 360.5,217C 360.252,218.749 359.252,219.582 357.5,219.5C 357.953,218.542 358.619,217.708 359.5,217C 357.117,213.801 355.45,210.301 354.5,206.5 Z"/></g>
<g><path style="opacity:0.171" fill="#fff9f4" d="M 374.5,202.5 C 376.977,206.101 379.477,209.767 382,213.5C 383.411,215.65 384.245,217.984 384.5,220.5C 380.156,215.153 376.823,209.153 374.5,202.5 Z"/></g>
<g><path style="opacity:0.246" fill="#fffcf9" d="M 404.5,195.5 C 408.91,208.808 412.243,222.474 414.5,236.5C 410.406,223.121 407.072,209.454 404.5,195.5 Z"/></g>
<g><path style="opacity:0.102" fill="#fff6ee" d="M 86.5,212.5 C 85.6167,215.704 83.9501,218.371 81.5,220.5C 82.1695,217.151 83.8361,214.484 86.5,212.5 Z"/></g>
<g><path style="opacity:0.561" fill="#ffead7" d="M 59.5,205.5 C 58.5932,212.789 56.9265,219.789 54.5,226.5C 54.5,225.833 54.5,225.167 54.5,224.5C 55.593,217.908 57.2597,211.575 59.5,205.5 Z"/></g>
<g><path style="opacity:0.097" fill="#fff8f2" d="M 114.5,222.5 C 117.803,223.151 120.47,224.818 122.5,227.5C 119.296,226.617 116.629,224.95 114.5,222.5 Z"/></g>
<g><path style="opacity:0.076" fill="#fff8f2" d="M 351.5,222.5 C 348.35,225.579 344.683,227.913 340.5,229.5C 343.358,225.99 347.024,223.657 351.5,222.5 Z"/></g>
<g><path style="opacity:0.08" fill="#fffbf8" d="M 81.5,220.5 C 81.238,221.978 81.5713,223.311 82.5,224.5C 87.5552,226.688 92.2219,229.355 96.5,232.5C 91.5626,230.369 86.5626,228.202 81.5,226C 80.193,224.057 80.193,222.223 81.5,220.5 Z"/></g>
<g><path style="opacity:0.392" fill="#fff6ee" d="M 122.5,227.5 C 125.198,227.845 127.198,229.178 128.5,231.5C 126.147,230.66 124.147,229.326 122.5,227.5 Z"/></g>
<g><path style="opacity:0.584" fill="#ffeddc" d="M 340.5,229.5 C 339.738,231.262 338.404,232.262 336.5,232.5C 337.262,230.738 338.596,229.738 340.5,229.5 Z"/></g>
<g><path style="opacity:0.939" fill="#ffe0c4" d="M 392.5,230.5 C 394.28,231.99 394.946,233.99 394.5,236.5C 393.542,234.698 392.875,232.698 392.5,230.5 Z"/></g>
<g><path style="opacity:0.678" fill="#fff0e1" d="M 336.5,232.5 C 336.027,233.906 335.027,234.573 333.5,234.5C 333.973,233.094 334.973,232.427 336.5,232.5 Z"/></g>
<g><path style="opacity:0.247" fill="#fff5eb" d="M 333.5,234.5 C 331.049,237.277 328.049,239.277 324.5,240.5C 326.951,237.723 329.951,235.723 333.5,234.5 Z"/></g>
<g><path style="opacity:0.05" fill="#fffaf6" d="M 54.5,224.5 C 54.5,225.167 54.5,225.833 54.5,226.5C 53.9244,231.809 52.591,236.809 50.5,241.5C 51.0735,235.545 52.4068,229.878 54.5,224.5 Z"/></g>
<g><path style="opacity:0.514" fill="#fff6ef" d="M 96.5,232.5 C 103.061,234.781 109.061,238.115 114.5,242.5C 107.89,240.197 101.89,236.863 96.5,232.5 Z"/></g>
<g><path style="opacity:0.138" fill="#fff8f2" d="M 128.5,231.5 C 133.665,233.338 137.999,236.338 141.5,240.5C 136.635,238.237 132.302,235.237 128.5,231.5 Z"/></g>
<g><path style="opacity:0.144" fill="#fff9f4" d="M 412.5,192.5 C 415.167,192.5 417.833,192.5 420.5,192.5C 422.857,192.337 425.19,192.503 427.5,193C 428.804,193.804 429.471,194.971 429.5,196.5C 428.474,231.812 427.641,267.145 427,302.5C 426.617,303.056 426.117,303.389 425.5,303.5C 426.525,267.176 427.191,230.843 427.5,194.5C 422.32,194.153 417.32,193.487 412.5,192.5 Z"/></g>
<g><path style="opacity:0.533" fill="#fff6ee" d="M 114.5,242.5 C 116.027,242.427 117.027,243.094 117.5,244.5C 115.973,244.573 114.973,243.906 114.5,242.5 Z"/></g>
<g><path style="opacity:0.243" fill="#fff6ee" d="M 322.5,242.5 C 319.81,245.185 316.81,247.518 313.5,249.5C 313.511,247.983 314.177,246.816 315.5,246C 317.577,244.295 319.91,243.128 322.5,242.5 Z"/></g>
<g><path style="opacity:0.553" fill="#fff6ef" d="M 143.5,242.5 C 148.262,243.586 151.928,246.253 154.5,250.5C 150.293,248.565 146.627,245.898 143.5,242.5 Z"/></g>
<g><path style="opacity:0.118" fill="#fff9f4" d="M 119.5,245.5 C 123.439,247.446 127.106,249.779 130.5,252.5C 126.024,251.429 122.357,249.096 119.5,245.5 Z"/></g>
<g><path style="opacity:0.757" fill="#ffe4cb" d="M 313.5,249.5 C 312.738,251.262 311.404,252.262 309.5,252.5C 310.262,250.738 311.596,249.738 313.5,249.5 Z"/></g>
<g><path style="opacity:0.008" fill="#fff9f5" d="M 156.5,252.5 C 159.089,253.419 161.089,255.086 162.5,257.5C 159.911,256.581 157.911,254.914 156.5,252.5 Z"/></g>
<g><path style="opacity:0.282" fill="#fffbf8" d="M 414.5,236.5 C 418.158,247.502 420.825,258.835 422.5,270.5C 417.256,271.815 411.923,272.482 406.5,272.5C 407.5,271.833 408.5,271.167 409.5,270.5C 410.167,270.5 410.833,270.5 411.5,270.5C 414.152,270.59 416.485,269.924 418.5,268.5C 419.5,268.5 420.5,268.5 421.5,268.5C 418.847,257.888 416.513,247.221 414.5,236.5 Z"/></g>
<g><path style="opacity:0.49" fill="#fff4ea" d="M 309.5,252.5 C 307.833,254.833 305.833,256.833 303.5,258.5C 303.167,258.5 302.833,258.5 302.5,258.5C 304.239,255.757 306.573,253.757 309.5,252.5 Z"/></g>
<g><path style="opacity:0.105" fill="#fff2e6" d="M 394.5,237.5 C 397.154,243.503 398.654,249.837 399,256.5C 391.636,259.01 384.136,261.01 376.5,262.5C 382.825,259.67 389.491,257.504 396.5,256C 397.167,255.333 397.833,254.667 398.5,254C 396.306,248.723 394.973,243.223 394.5,237.5 Z"/></g>
<g><path style="opacity:0.678" fill="#ffe8d2" d="M 48.5,251.5 C 48.2809,255.8 47.2809,259.8 45.5,263.5C 45.5,263.167 45.5,262.833 45.5,262.5C 45.7424,258.521 46.7424,254.854 48.5,251.5 Z"/></g>
<g><path style="opacity:0.416" fill="#fff9f3" d="M 130.5,252.5 C 135.786,255.788 140.786,259.454 145.5,263.5C 139.652,260.985 134.652,257.318 130.5,252.5 Z"/></g>
<g><path style="opacity:0.894" fill="#ffddbd" d="M 302.5,258.5 C 302.833,258.5 303.167,258.5 303.5,258.5C 302.089,260.914 300.089,262.581 297.5,263.5C 298.833,261.5 300.5,259.833 302.5,258.5 Z"/></g>
<g><path style="opacity:0.092" fill="#fff6ed" d="M 89.5,262.5 C 92.2165,262.678 94.8832,263.178 97.5,264C 103.149,266.039 108.482,268.539 113.5,271.5C 105.224,269.02 97.2242,266.02 89.5,262.5 Z"/></g>
<g><path style="opacity:0.111" fill="#fff5ed" d="M 162.5,257.5 C 165.412,259.066 168.079,261.066 170.5,263.5C 176.611,269.601 182.277,275.934 187.5,282.5C 178.833,274.5 170.5,266.167 162.5,257.5 Z"/></g>
<g><path style="opacity:0.097" fill="#fff6ee" d="M 375.5,262.5 C 370.015,265.069 364.349,267.403 358.5,269.5C 357.833,269.5 357.167,269.5 356.5,269.5C 362.45,266.368 368.784,264.035 375.5,262.5 Z"/></g>
<g><path style="opacity:0.149" fill="#fffbf7" d="M 45.5,262.5 C 45.5,262.833 45.5,263.167 45.5,263.5C 45.2606,265.467 45.5939,267.301 46.5,269C 49.4318,269.953 52.4318,270.453 55.5,270.5C 56.5,271.167 57.5,271.833 58.5,272.5C 53.592,272.519 48.9254,271.519 44.5,269.5C 43.7057,267.009 44.039,264.676 45.5,262.5 Z"/></g>
<g><path style="opacity:0.992" fill="#ffe0c2" d="M 418.5,268.5 C 416.485,269.924 414.152,270.59 411.5,270.5C 413.515,269.076 415.848,268.41 418.5,268.5 Z"/></g>
<g><path style="opacity:0.152" fill="#fff7ef" d="M 145.5,263.5 C 150.409,266.074 154.742,269.408 158.5,273.5C 157.078,273.291 155.745,272.791 154.5,272C 151.426,269.151 148.426,266.317 145.5,263.5 Z"/></g>
<g><path style="opacity:0.561" fill="#fff3e8" d="M 297.5,263.5 C 294.5,267.167 291.167,270.5 287.5,273.5C 289.833,269.167 293.167,265.833 297.5,263.5 Z"/></g>
<g><path style="opacity:0.937" fill="#ffd7b2" d="M 356.5,269.5 C 357.167,269.5 357.833,269.5 358.5,269.5C 356.316,271.585 353.649,272.585 350.5,272.5C 352.181,270.992 354.181,269.992 356.5,269.5 Z"/></g>
<g><path style="opacity:1" fill="#ffdab7" d="M 55.5,270.5 C 58.1522,270.41 60.4855,271.076 62.5,272.5C 61.8333,272.5 61.1667,272.5 60.5,272.5C 59.8333,272.5 59.1667,272.5 58.5,272.5C 57.5,271.833 56.5,271.167 55.5,270.5 Z"/></g>
<g><path style="opacity:0.996" fill="#ffe1c4" d="M 409.5,270.5 C 408.5,271.167 407.5,271.833 406.5,272.5C 405.167,272.5 403.833,272.5 402.5,272.5C 404.515,271.076 406.848,270.41 409.5,270.5 Z"/></g>
<g><path style="opacity:0.076" fill="#fff6ee" d="M 118.5,273.5 C 125.529,275.182 131.862,278.182 137.5,282.5C 130.745,280.288 124.412,277.288 118.5,273.5 Z"/></g>
<g><path style="opacity:0.392" fill="#fff8f2" d="M 287.5,273.5 C 286.5,275.167 285.167,276.5 283.5,277.5C 283.833,275.167 285.167,273.833 287.5,273.5 Z"/></g>
<g><path style="opacity:0.272" fill="#fffbf8" d="M 402.5,272.5 C 403.833,272.5 405.167,272.5 406.5,272.5C 393.651,276.334 380.651,280 367.5,283.5C 372.5,281.5 377.5,279.5 382.5,277.5C 388.856,274.659 395.522,272.993 402.5,272.5 Z"/></g>
<g><path style="opacity:0.208" fill="#fffaf6" d="M 60.5,272.5 C 61.1667,272.5 61.8333,272.5 62.5,272.5C 74.9567,274.988 86.9567,278.655 98.5,283.5C 85.7526,279.816 73.0859,276.15 60.5,272.5 Z"/></g>
<g><path style="opacity:0.533" fill="#fff2e6" d="M 347.5,273.5 C 342.919,276.622 337.919,278.956 332.5,280.5C 336.974,277.222 341.974,274.888 347.5,273.5 Z"/></g>
<g><path style="opacity:0.843" fill="#ffe3c9" d="M 332.5,280.5 C 332.027,281.906 331.027,282.573 329.5,282.5C 329.973,281.094 330.973,280.427 332.5,280.5 Z"/></g>
<g><path style="opacity:0.384" fill="#fff6ef" d="M 158.5,273.5 C 162.771,276.101 166.437,279.434 169.5,283.5C 165.229,280.899 161.563,277.566 158.5,273.5 Z"/></g>
<g><path style="opacity:0.984" fill="#ffe7d0" d="M 382.5,277.5 C 377.5,279.5 372.5,281.5 367.5,283.5C 366.791,284.404 365.791,284.737 364.5,284.5C 363.833,284.5 363.167,284.5 362.5,284.5C 368.635,281.009 375.302,278.675 382.5,277.5 Z"/></g>
<g><path style="opacity:0.086" fill="#fffaf6" d="M 187.5,282.5 C 189.935,283.27 191.269,284.937 191.5,287.5C 189.413,286.415 188.08,284.749 187.5,282.5 Z"/></g>
<g><path style="opacity:0.478" fill="#fff1e5" d="M 283.5,277.5 C 280.537,281.798 277.203,285.798 273.5,289.5C 275.672,284.65 279.006,280.65 283.5,277.5 Z"/></g>
<g><path style="opacity:0.127" fill="#fff3e9" d="M 169.5,283.5 C 174.139,286.139 177.806,289.806 180.5,294.5C 175.833,291.833 172.167,288.167 169.5,283.5 Z"/></g>
<g><path style="opacity:0.306" fill="#fff9f4" d="M 327.5,283.5 C 325.819,285.008 323.819,286.008 321.5,286.5C 322.911,284.461 324.911,283.461 327.5,283.5 Z"/></g>
<g><path style="opacity:0.031" fill="#fff7ef" d="M 139.5,283.5 C 145.292,285.315 150.292,288.315 154.5,292.5C 148.995,290.251 143.995,287.251 139.5,283.5 Z"/></g>
<g><path style="opacity:0.12" fill="#fff2e6" d="M 319.5,287.5 C 317.853,289.326 315.853,290.66 313.5,291.5C 314.802,289.178 316.802,287.845 319.5,287.5 Z"/></g>
<g><path style="opacity:0.186" fill="#fffaf6" d="M 99.5,283.5 C 107.608,285.533 115.274,288.533 122.5,292.5C 114.442,290.297 106.775,287.297 99.5,283.5 Z"/></g>
<g><path style="opacity:0.667" fill="#fff3e9" d="M 191.5,287.5 C 193.262,288.262 194.262,289.596 194.5,291.5C 192.738,290.738 191.738,289.404 191.5,287.5 Z"/></g>
<g><path style="opacity:1" fill="#ffeddc" d="M 122.5,292.5 C 125.491,292.166 127.824,293.166 129.5,295.5C 126.759,295.293 124.426,294.293 122.5,292.5 Z"/></g>
<g><path style="opacity:0.096" fill="#fff9f3" d="M 156.5,293.5 C 161.151,295.161 165.151,297.828 168.5,301.5C 164.148,299.327 160.148,296.66 156.5,293.5 Z"/></g>
<g><path style="opacity:0.49" fill="#fff1e3" d="M 271.5,291.5 C 269.6,295.732 266.933,299.399 263.5,302.5C 263.709,301.078 264.209,299.745 265,298.5C 266.719,295.712 268.885,293.379 271.5,291.5 Z"/></g>
<g><path style="opacity:0.168" fill="#fff6ef" d="M 180.5,294.5 C 184.847,297.848 188.514,301.848 191.5,306.5C 187.124,303.126 183.458,299.126 180.5,294.5 Z"/></g>
<g><path style="opacity:0.486" fill="#fff8f2" d="M 194.5,291.5 C 198.707,294.041 201.373,297.708 202.5,302.5C 199.591,299.019 196.925,295.352 194.5,291.5 Z"/></g>
<g><path style="opacity:0.42" fill="#fff4ea" d="M 309.5,293.5 C 306.725,296.605 303.392,298.938 299.5,300.5C 302.275,297.395 305.608,295.062 309.5,293.5 Z"/></g>
<g><path style="opacity:0.184" fill="#fff8f2" d="M 129.5,295.5 C 136.086,297.46 142.086,300.46 147.5,304.5C 141.07,302.253 135.07,299.253 129.5,295.5 Z"/></g>
<g><path style="opacity:0.043" fill="#fff9f4" d="M 168.5,301.5 C 170.027,301.427 171.027,302.094 171.5,303.5C 169.973,303.573 168.973,302.906 168.5,301.5 Z"/></g>
<g><path style="opacity:0.831" fill="#ffe6ce" d="M 299.5,300.5 C 299.027,301.906 298.027,302.573 296.5,302.5C 296.973,301.094 297.973,300.427 299.5,300.5 Z"/></g>
<g><path style="opacity:0.083" fill="#fffaf6" d="M 57.5,303.5 C 75.2452,303.101 92.5786,305.101 109.5,309.5C 108.5,309.5 107.5,309.5 106.5,309.5C 90.135,306.653 73.8017,304.653 57.5,303.5 Z"/></g>
<g><path style="opacity:0.588" fill="#fff3e8" d="M 296.5,302.5 C 296.027,303.906 295.027,304.573 293.5,304.5C 293.973,303.094 294.973,302.427 296.5,302.5 Z"/></g>
<g><path style="opacity:0.07" fill="#fffcfa" d="M 409.5,303.5 C 396.934,304.424 384.268,305.757 371.5,307.5C 370.5,307.5 369.5,307.5 368.5,307.5C 381.845,304.377 395.512,303.043 409.5,303.5 Z"/></g>
<g><path style="opacity:0.207" fill="#fff9f5" d="M 202.5,302.5 C 204.836,304.004 206.669,306.004 208,308.5C 214.046,318.345 218.88,328.679 222.5,339.5C 216.614,326.728 209.948,314.394 202.5,302.5 Z"/></g>
<g><path style="opacity:0.408" fill="#fff1e4" d="M 261.5,305.5 C 261.573,307.027 260.906,308.027 259.5,308.5C 259.427,306.973 260.094,305.973 261.5,305.5 Z"/></g>
<g><path style="opacity:0.247" fill="#fff2e6" d="M 293.5,304.5 C 290.129,307.871 286.463,310.871 282.5,313.5C 285.29,309.372 288.957,306.372 293.5,304.5 Z"/></g>
<g><path style="opacity:0.6" fill="#fff6ee" d="M 171.5,303.5 C 176.043,305.372 179.71,308.372 182.5,312.5C 178.273,310.215 174.607,307.215 171.5,303.5 Z"/></g>
<g><path style="opacity:0.561" fill="#ffead7" d="M 368.5,307.5 C 369.5,307.5 370.5,307.5 371.5,307.5C 362.987,309.366 354.32,311.033 345.5,312.5C 352.804,309.704 360.471,308.037 368.5,307.5 Z"/></g>
<g><path style="opacity:0.639" fill="#ffe8d3" d="M 106.5,309.5 C 107.5,309.5 108.5,309.5 109.5,309.5C 113.761,309.898 117.761,310.898 121.5,312.5C 116.231,312.261 111.231,311.261 106.5,309.5 Z"/></g>
<g><path style="opacity:0.135" fill="#fff7ef" d="M 147.5,304.5 C 153.954,306.558 159.621,309.891 164.5,314.5C 158.332,311.92 152.665,308.586 147.5,304.5 Z"/></g>
<g><path style="opacity:0.096" fill="#fff7f0" d="M 191.5,306.5 C 195.106,309.024 197.772,312.357 199.5,316.5C 195.883,313.936 193.216,310.603 191.5,306.5 Z"/></g>
<g><path style="opacity:0.361" fill="#fff6ee" d="M 259.5,308.5 C 257.668,312.836 255.335,316.836 252.5,320.5C 253.809,315.879 256.142,311.879 259.5,308.5 Z"/></g>
<g><path style="opacity:0.153" fill="#fff8f2" d="M 126.5,313.5 C 135.051,314.795 143.051,317.462 150.5,321.5C 142.233,319.411 134.233,316.744 126.5,313.5 Z"/></g>
<g><path style="opacity:0.09" fill="#fff4ea" d="M 339.5,313.5 C 331.04,316.877 322.373,319.877 313.5,322.5C 321.532,317.933 330.199,314.933 339.5,313.5 Z"/></g>
<g><path style="opacity:0.12" fill="#fff7ef" d="M 183.5,313.5 C 187.531,315.014 190.531,317.681 192.5,321.5C 188.9,319.57 185.9,316.903 183.5,313.5 Z"/></g>
<g><path style="opacity:0.012" fill="#fff9f3" d="M 199.5,316.5 C 201.262,317.262 202.262,318.596 202.5,320.5C 200.738,319.738 199.738,318.404 199.5,316.5 Z"/></g>
<g><path style="opacity:0.933" fill="#ffddbd" d="M 69.5,320.5 C 53.3138,320.663 37.3138,320.663 21.5,320.5C 37.6573,319.292 53.6573,319.292 69.5,320.5 Z"/></g>
<g><path style="opacity:0.129" fill="#fff9f4" d="M 164.5,314.5 C 169.709,316.719 174.376,319.719 178.5,323.5C 177.448,323.649 176.448,323.483 175.5,323C 171.933,319.92 168.267,317.087 164.5,314.5 Z"/></g>
<g><path style="opacity:0.959" fill="#ffddbe" d="M 429.5,320.5 C 411.493,320.529 393.493,320.862 375.5,321.5C 386.296,320.023 397.296,319.356 408.5,319.5C 415.675,319.5 422.675,319.834 429.5,320.5 Z"/></g>
<g><path style="opacity:0.181" fill="#fffbf8" d="M 19.5,270.5 C 20.3527,287.003 21.0194,303.669 21.5,320.5C 37.3138,320.663 53.3138,320.663 69.5,320.5C 75.2124,320.313 80.8791,320.646 86.5,321.5C 88.8333,322.167 91.1667,322.833 93.5,323.5C 79.6732,322.762 65.8398,322.096 52,321.5C 42.4268,321.49 32.9268,322.157 23.5,323.5C 21.8662,323.032 20.6995,322.032 20,320.5C 19.5001,303.837 19.3334,287.17 19.5,270.5 Z"/></g>
<g><path style="opacity:0.788" fill="#ffebd8" d="M 282.5,313.5 C 279.769,317.234 276.436,320.234 272.5,322.5C 275.231,318.766 278.564,315.766 282.5,313.5 Z"/></g>
<g><path style="opacity:1" fill="#ffddbe" d="M 86.5,321.5 C 91.7312,321.444 96.7312,322.111 101.5,323.5C 99.8333,323.5 98.1667,323.5 96.5,323.5C 95.5,323.5 94.5,323.5 93.5,323.5C 91.1667,322.833 88.8333,322.167 86.5,321.5 Z"/></g>
<g><path style="opacity:1" fill="#ffdbba" d="M 375.5,321.5 C 372.026,322.525 368.36,323.192 364.5,323.5C 367.845,321.783 371.511,321.116 375.5,321.5 Z"/></g>
<g><path style="opacity:0.118" fill="#fff4eb" d="M 192.5,321.5 C 197.248,323.913 200.581,327.58 202.5,332.5C 198.434,329.437 195.101,325.771 192.5,321.5 Z"/></g>
<g><path style="opacity:0.804" fill="#ffead7" d="M 178.5,323.5 C 180.027,323.427 181.027,324.094 181.5,325.5C 179.973,325.573 178.973,324.906 178.5,323.5 Z"/></g>
<g><path style="opacity:0.533" fill="#ffebd8" d="M 251.5,322.5 C 251.573,324.027 250.906,325.027 249.5,325.5C 249.427,323.973 250.094,322.973 251.5,322.5 Z"/></g>
<g><path style="opacity:0.463" fill="#fff9f3" d="M 202.5,320.5 C 205.323,321.992 206.99,324.326 207.5,327.5C 205.453,325.45 203.786,323.117 202.5,320.5 Z"/></g>
<g><path style="opacity:0.352" fill="#fff7f0" d="M 362.5,284.5 C 363.167,284.5 363.833,284.5 364.5,284.5C 336.958,295.104 310.958,308.604 286.5,325C 278.642,331.53 270.809,338.03 263,344.5C 257.956,349.876 253.289,355.542 249,361.5C 248.472,362.816 248.972,363.483 250.5,363.5C 248.011,366.855 245.011,369.521 241.5,371.5C 240.833,371.5 240.167,371.5 239.5,371.5C 243.703,364.45 248.536,357.784 254,351.5C 284.662,320.094 320.828,297.761 362.5,284.5 Z"/></g>
<g><path style="opacity:0.267" fill="#fff9f3" d="M 96.5,323.5 C 98.1667,323.5 99.8333,323.5 101.5,323.5C 116.344,325.129 130.677,328.463 144.5,333.5C 128.517,329.504 112.517,326.171 96.5,323.5 Z"/></g>
<g><path style="opacity:0.18" fill="#fff6ee" d="M 155.5,323.5 C 161.844,324.84 167.511,327.507 172.5,331.5C 166.685,329.092 161.018,326.425 155.5,323.5 Z"/></g>
<g><path style="opacity:0.11" fill="#fff9f3" d="M 181.5,325.5 C 185.12,327.453 188.12,330.119 190.5,333.5C 187.732,331.913 185.065,330.08 182.5,328C 181.748,327.329 181.414,326.496 181.5,325.5 Z"/></g>
<g><path style="opacity:0.996" fill="#ffddbd" d="M 342.5,326.5 C 339.146,328.258 335.479,329.258 331.5,329.5C 334.854,327.742 338.521,326.742 342.5,326.5 Z"/></g>
<g><path style="opacity:0.143" fill="#fffaf5" d="M 207.5,327.5 C 209.25,328.659 210.25,330.326 210.5,332.5C 208.75,331.341 207.75,329.674 207.5,327.5 Z"/></g>
<g><path style="opacity:0.643" fill="#ffecdb" d="M 271.5,323.5 C 269.234,327.436 266.234,330.769 262.5,333.5C 264.766,329.564 267.766,326.231 271.5,323.5 Z"/></g>
<g><path style="opacity:0.69" fill="#fff0e2" d="M 310.5,323.5 C 305.254,326.955 299.587,329.622 293.5,331.5C 298.715,328.061 304.382,325.395 310.5,323.5 Z"/></g>
<g><path style="opacity:0.953" fill="#ffe2c8" d="M 330.5,329.5 C 327.495,331.277 324.162,332.277 320.5,332.5C 323.505,330.723 326.838,329.723 330.5,329.5 Z"/></g>
<g><path style="opacity:0.302" fill="#fff7f0" d="M 249.5,325.5 C 247.684,331.125 245.351,336.459 242.5,341.5C 243.766,335.64 246.1,330.307 249.5,325.5 Z"/></g>
<g><path style="opacity:0.097" fill="#fff9f5" d="M 176.5,333.5 C 182.264,335.272 187.264,338.272 191.5,342.5C 186.233,339.89 181.233,336.89 176.5,333.5 Z"/></g>
<g><path style="opacity:0.396" fill="#fff5eb" d="M 289.5,333.5 C 286.024,336.623 282.024,338.957 277.5,340.5C 279.764,338.686 282.097,336.853 284.5,335C 286.025,333.991 287.692,333.491 289.5,333.5 Z"/></g>
<g><path style="opacity:0.124" fill="#fff5eb" d="M 192.5,334.5 C 196.456,336.788 199.789,339.788 202.5,343.5C 197.929,341.931 194.595,338.931 192.5,334.5 Z"/></g>
<g><path style="opacity:0.09" fill="#fffaf6" d="M 212.5,335.5 C 214.95,337.629 216.617,340.296 217.5,343.5C 214.836,341.516 213.169,338.849 212.5,335.5 Z"/></g>
<g><path style="opacity:0.357" fill="#fff5ed" d="M 262.5,333.5 C 260.727,336.06 258.727,338.393 256.5,340.5C 257.348,337.112 259.348,334.779 262.5,333.5 Z"/></g>
<g><path style="opacity:0.144" fill="#fff9f4" d="M 145.5,333.5 C 155.4,335.465 164.733,338.798 173.5,343.5C 163.996,340.463 154.663,337.13 145.5,333.5 Z"/></g>
<g><path style="opacity:0.439" fill="#fff8f2" d="M 256.5,340.5 C 256.573,342.027 255.906,343.027 254.5,343.5C 254.427,341.973 255.094,340.973 256.5,340.5 Z"/></g>
<g><path style="opacity:0.694" fill="#ffead7" d="M 277.5,340.5 C 276.738,342.262 275.404,343.262 273.5,343.5C 274.262,341.738 275.596,340.738 277.5,340.5 Z"/></g>
<g><path style="opacity:0.059" fill="#fff3e8" d="M 273.5,343.5 C 269.866,346.984 265.866,349.984 261.5,352.5C 264.418,348.043 268.418,345.043 273.5,343.5 Z"/></g>
<g><path style="opacity:0.143" fill="#fff8f2" d="M 203.5,333.5 C 209.924,338.977 214.924,345.644 218.5,353.5C 213.512,346.872 208.512,340.205 203.5,333.5 Z"/></g>
<g><path style="opacity:0.275" fill="#fff7f1" d="M 254.5,343.5 C 254.573,345.027 253.906,346.027 252.5,346.5C 252.427,344.973 253.094,343.973 254.5,343.5 Z"/></g>
<g><path style="opacity:0.471" fill="#fff6ee" d="M 202.5,344.5 C 206.5,346.5 209.5,349.5 211.5,353.5C 208.167,350.833 205.167,347.833 202.5,344.5 Z"/></g>
<g><path style="opacity:0.992" fill="#ffe0c3" d="M 219.5,347.5 C 221.824,347.877 222.491,348.877 221.5,350.5C 220.094,350.027 219.427,349.027 219.5,347.5 Z"/></g>
<g><path style="opacity:0.596" fill="#fff5ec" d="M 191.5,342.5 C 196.237,344.346 199.904,347.346 202.5,351.5C 198.474,348.795 194.808,345.795 191.5,342.5 Z"/></g>
<g><path style="opacity:0.262" fill="#fff8f2" d="M 384.5,220.5 C 385.819,222.605 385.486,224.605 383.5,226.5C 329.527,251.167 286.027,287.834 253,336.5C 247.91,344.849 243.743,353.682 240.5,363C 240.57,363.765 240.903,364.265 241.5,364.5C 241.179,366.048 240.179,366.715 238.5,366.5C 238.122,368.921 237.455,371.254 236.5,373.5C 235.751,374.531 235.085,375.698 234.5,377C 233.251,377.74 232.251,377.573 231.5,376.5C 231.022,371.273 230.022,366.273 228.5,361.5C 227.037,355.11 225.37,348.777 223.5,342.5C 228.516,352.874 231.849,363.874 233.5,375.5C 234.41,364.865 237.076,354.532 241.5,344.5C 239.988,351.209 238.155,357.876 236,364.5C 235.333,366.167 235.333,367.833 236,369.5C 242.248,352.335 250.581,336.335 261,321.5C 293.99,279.008 334.824,246.341 383.5,223.5C 384.386,222.675 384.719,221.675 384.5,220.5 Z"/></g>
<g><path style="opacity:0.133" fill="#fff7ef" d="M 173.5,343.5 C 178.209,344.994 182.876,346.828 187.5,349C 190.407,350.609 193.073,352.442 195.5,354.5C 187.849,351.341 180.516,347.675 173.5,343.5 Z"/></g>
<g><path style="opacity:0.012" fill="#fff4e9" d="M 202.5,351.5 C 204.027,351.427 205.027,352.094 205.5,353.5C 203.973,353.573 202.973,352.906 202.5,351.5 Z"/></g>
<g><path style="opacity:0.573" fill="#ffebd8" d="M 250.5,350.5 C 250.573,352.027 249.906,353.027 248.5,353.5C 248.427,351.973 249.094,350.973 250.5,350.5 Z"/></g>
<g><path style="opacity:0.78" fill="#ffedde" d="M 211.5,353.5 C 212.833,353.5 213.5,354.167 213.5,355.5C 212.5,355.167 211.833,354.5 211.5,353.5 Z"/></g>
<g><path style="opacity:0.112" fill="#fffaf6" d="M 218.5,353.5 C 221.112,355.052 222.445,357.386 222.5,360.5C 220.412,358.664 219.079,356.331 218.5,353.5 Z"/></g>
<g><path style="opacity:0.235" fill="#fff2e6" d="M 259.5,354.5 C 257.14,357.527 254.473,360.194 251.5,362.5C 252.5,358.167 255.167,355.5 259.5,354.5 Z"/></g>
<g><path style="opacity:0.059" fill="#fff9f4" d="M 248.5,353.5 C 247.241,357.025 245.241,360.025 242.5,362.5C 243.263,358.63 245.263,355.63 248.5,353.5 Z"/></g>
<g><path style="opacity:0.408" fill="#fff8f2" d="M 222.5,353.5 C 224.93,356.46 226.597,359.793 227.5,363.5C 228.167,367.167 228.833,370.833 229.5,374.5C 228.167,372.167 226.833,369.833 225.5,367.5C 224.227,365.287 223.227,362.954 222.5,360.5C 223.65,361.85 224.317,361.684 224.5,360C 223.391,357.953 222.724,355.787 222.5,353.5 Z"/></g>
<g><path style="opacity:0.13" fill="#fff9f3" d="M 195.5,354.5 C 200.855,356.506 205.521,359.506 209.5,363.5C 204.291,361.281 199.624,358.281 195.5,354.5 Z"/></g>
<g><path style="opacity:0.886" fill="#ffeede" d="M 209.5,363.5 C 211.027,363.427 212.027,364.094 212.5,365.5C 210.973,365.573 209.973,364.906 209.5,363.5 Z"/></g>
<g><path style="opacity:0.305" fill="#fff8f2" d="M 205.5,353.5 C 209.744,355.904 213.578,358.904 217,362.5C 216.173,360.123 215.006,357.789 213.5,355.5C 217.542,359.54 221.209,363.873 224.5,368.5C 225.117,370.68 226.117,372.68 227.5,374.5C 227.376,375.107 227.043,375.44 226.5,375.5C 220.153,367.487 213.153,360.154 205.5,353.5 Z"/></g>
<g><path style="opacity:0.992" fill="#ffca99" d="M 228.5,361.5 C 230.022,366.273 231.022,371.273 231.5,376.5C 230.833,375.833 230.167,375.167 229.5,374.5C 228.833,370.833 228.167,367.167 227.5,363.5C 227.328,362.508 227.662,361.842 228.5,361.5 Z"/></g>
<g><path style="opacity:1" fill="#ffcd9f" d="M 251.5,362.5 C 251.328,363.492 251.662,364.158 252.5,364.5C 246.562,369.099 240.895,374.099 235.5,379.5C 237.091,376.569 239.091,373.902 241.5,371.5C 245.011,369.521 248.011,366.855 250.5,363.5C 250.5,362.833 250.833,362.5 251.5,362.5 Z"/></g>
<g><path style="opacity:0.371" fill="#fff8f1" d="M 445.5,299.5 C 445.5,306.5 445.5,313.5 445.5,320.5C 445.582,322.252 444.749,323.252 443,323.5C 383.064,316.905 326.231,327.071 272.5,354C 258.384,362.723 245.384,372.889 233.5,384.5C 230.455,383.456 228.455,381.456 227.5,378.5C 229.129,379.625 230.629,380.959 232,382.5C 232.333,381.5 232.667,380.5 233,379.5C 233.977,380.774 234.811,380.774 235.5,379.5C 240.895,374.099 246.562,369.099 252.5,364.5C 273.358,349.955 296.025,339.288 320.5,332.5C 324.162,332.277 327.495,331.277 330.5,329.5C 330.833,329.5 331.167,329.5 331.5,329.5C 335.479,329.258 339.146,328.258 342.5,326.5C 349.712,324.868 357.045,323.868 364.5,323.5C 368.36,323.192 372.026,322.525 375.5,321.5C 393.493,320.862 411.493,320.529 429.5,320.5C 434.5,320.5 439.5,320.5 444.5,320.5C 444.175,313.313 444.509,306.313 445.5,299.5 Z"/></g>
<g><path style="opacity:0.131" fill="#fff8f2" d="M 212.5,365.5 C 217.279,367.891 221.279,371.224 224.5,375.5C 219.548,373.207 215.548,369.874 212.5,365.5 Z"/></g>
<g><path style="opacity:0.876" fill="#ffe9d5" d="M 225.5,367.5 C 226.833,369.833 228.167,372.167 229.5,374.5C 230.167,375.167 230.833,375.833 231.5,376.5C 232.251,377.573 233.251,377.74 234.5,377C 235.085,375.698 235.751,374.531 236.5,373.5C 236.435,373.938 236.601,374.272 237,374.5C 237.377,373.058 238.21,372.058 239.5,371.5C 240.167,371.5 240.833,371.5 241.5,371.5C 239.091,373.902 237.091,376.569 235.5,379.5C 234.811,380.774 233.977,380.774 233,379.5C 232.667,380.5 232.333,381.5 232,382.5C 230.629,380.959 229.129,379.625 227.5,378.5C 226.167,377.833 225.167,376.833 224.5,375.5C 225.167,375.5 225.833,375.5 226.5,375.5C 227.043,375.44 227.376,375.107 227.5,374.5C 226.117,372.68 225.117,370.68 224.5,368.5C 225.167,368.5 225.5,368.167 225.5,367.5 Z"/></g>
</svg>
